<svg width="24" height="24" viewBox="0 0 24 24" fill="none" xmlns="http://www.w3.org/2000/svg">
<path d="M7.37806 3.80657C5.18431 3.88157 3.8343 3.99407 3.3468 4.1347C2.24055 4.46282 1.55618 5.35345 1.26555 6.84407C0.890554 8.73782 0.834304 13.9128 1.15305 16.5285C1.3593 18.1878 1.91243 19.2097 2.8593 19.6691C3.76868 20.1191 5.88743 20.2597 11.9624 20.2597C16.0781 20.2597 19.0499 20.1753 20.1468 20.0066C21.7406 19.7535 22.5937 18.666 22.8562 16.5285C23.1749 13.9128 23.1187 8.73782 22.7437 6.84407C22.4531 5.36282 21.8062 4.50032 20.6999 4.14407C19.6593 3.80657 12.6562 3.62845 7.37806 3.80657ZM12.8249 10.0034L16.1062 12.0191C16.1062 12.0472 14.6343 12.9566 12.8249 14.0347L9.37493 16.1159L9.20618 16.2191V12.0191V7.81907L9.37493 7.9222L12.8249 10.0034Z" fill="#FF0000"/>
</svg>
