<svg xmlns="http://www.w3.org/2000/svg" width="171" height="75" fill="none"><g fill="#091922" clip-path="url(#a)"><path d="M65.85 73.35q0 .305-.065.6c-.04.189-.114.367-.22.524a1.15 1.15 0 0 1-.417.372c-.204.1-.428.148-.653.14a1.3 1.3 0 0 1-.612-.132 1.1 1.1 0 0 1-.396-.355 1.5 1.5 0 0 1-.214-.515 3 3 0 0 1-.065-.62q0-.314.074-.618c.046-.192.124-.374.233-.535.109-.158.25-.287.414-.378a1.43 1.43 0 0 1 1.246 0c.16.09.298.218.402.375.103.16.174.34.211.53q.062.303.062.613m-.515.014q0-.216-.03-.43a1.4 1.4 0 0 0-.114-.401.8.8 0 0 0-.233-.296.6.6 0 0 0-.389-.118.7.7 0 0 0-.414.11.8.8 0 0 0-.257.287q-.099.186-.132.397-.037.223-.037.45t.028.453c.015.135.054.266.116.384.059.11.145.201.248.264.13.071.277.105.423.098a.64.64 0 0 0 .372-.092.7.7 0 0 0 .265-.292q.09-.182.12-.386.033-.212.035-.427zM67.664 71.683c.301-.007.601.05.882.17v.84h-.38v-.501a1 1 0 0 0-.21-.046 2 2 0 0 0-.195-.013.8.8 0 0 0-.394.07.84.84 0 0 0-.32.256 1.58 1.58 0 0 0-.229.919c-.016.301.05.601.193.863a.74.74 0 0 0 .288.246c.114.055.24.077.365.064q.223 0 .44-.049.226-.056.442-.146l.122.37a1.8 1.8 0 0 1-.472.19 2.3 2.3 0 0 1-.57.07 1.4 1.4 0 0 1-.63-.122 1.1 1.1 0 0 1-.405-.339 1.4 1.4 0 0 1-.217-.508 3 3 0 0 1-.01-1.184q.055-.296.202-.553a1.2 1.2 0 0 1 .412-.428c.21-.121.447-.18.686-.169M71.738 71.756v2.776h.44v.32a1.3 1.3 0 0 1-.265.09q-.127.03-.255.032a.45.45 0 0 1-.316-.094.5.5 0 0 1-.1-.361v-1.076h-1.446v1.493h-.497v-2.803h-.398v-.377h.9v1.315h1.44v-1.315zM75.103 73.35q0 .305-.065.6c-.04.189-.115.367-.22.525a1.15 1.15 0 0 1-.417.37c-.205.101-.428.15-.653.141a1.3 1.3 0 0 1-.612-.132 1.1 1.1 0 0 1-.396-.355 1.5 1.5 0 0 1-.214-.515 3 3 0 0 1-.065-.62q0-.314.074-.618c.045-.192.124-.374.232-.535.11-.158.251-.287.415-.378a1.43 1.43 0 0 1 1.246 0c.16.09.298.218.402.375.103.16.174.34.212.53q.06.303.061.613m-.516.014q0-.216-.03-.43a1.4 1.4 0 0 0-.113-.401.8.8 0 0 0-.233-.296.6.6 0 0 0-.389-.117.7.7 0 0 0-.414.11.8.8 0 0 0-.257.286q-.099.186-.132.397-.037.223-.037.45t.028.453c.015.135.054.266.116.384.059.11.144.202.248.264.13.071.277.105.423.098a.64.64 0 0 0 .372-.091.7.7 0 0 0 .265-.293q.09-.182.12-.386.033-.212.033-.427zM77.088 71.756a1.05 1.05 0 0 1 .738.224q.121.112.185.27a.8.8 0 0 1 .058.327 1 1 0 0 1-.074.355.7.7 0 0 1-.289.322.72.72 0 0 1 .37.356q.047.105.07.219.02.105.02.215a.87.87 0 0 1-.281.651.9.9 0 0 1-.3.18 1.1 1.1 0 0 1-.362.061h-1.71v-.384h.318v-2.419h-.306v-.377zm-.76.371v.992h.69a.57.57 0 0 0 .404-.14.469.469 0 0 0 .15-.349.5.5 0 0 0-.136-.359.62.62 0 0 0-.461-.143zm0 1.33v1.101h.725a.8.8 0 0 0 .288-.048.6.6 0 0 0 .188-.128.5.5 0 0 0 .107-.179.7.7 0 0 0 .034-.205.55.55 0 0 0-.153-.374.584.584 0 0 0-.464-.166zM80.882 74.532h.47l.032.305a.6.6 0 0 1-.135.056 2 2 0 0 1-.328.065 1 1 0 0 1-.132.01.45.45 0 0 1-.27-.072q-.096-.07-.103-.32-.006 0-.006-.002 0-.004-.006-.004-.15.14-.325.241-.136.078-.285.124a1 1 0 0 1-.236.046q-.105.006-.171.006a.9.9 0 0 1-.427-.09.75.75 0 0 1-.256-.215.8.8 0 0 1-.146-.31 1.3 1.3 0 0 1-.036-.297.9.9 0 0 1 .068-.365.8.8 0 0 1 .211-.296c.245-.189.54-.29.842-.29l.76-.052v-.208c.02-.2-.028-.4-.134-.567a.631.631 0 0 0-.502-.156q-.23 0-.457.044a3 3 0 0 0-.463.13 3 3 0 0 1-.054-.179l-.05-.179a2.754 2.754 0 0 1 1.14-.254c.264-.017.525.066.736.235q.263.235.264.82zm-1.233-1.062a.67.67 0 0 0-.447.172.5.5 0 0 0-.153.381.56.56 0 0 0 .128.407.59.59 0 0 0 .424.127.9.9 0 0 0 .407-.104q.216-.103.39-.273v-.763zM84.368 71.756v2.776h.44v.32a1.3 1.3 0 0 1-.265.09q-.127.03-.255.032a.45.45 0 0 1-.316-.094.5.5 0 0 1-.1-.361v-1.076h-1.447v1.493h-.497v-2.803h-.398v-.377h.902v1.315h1.44v-1.315zM88.235 71.756a1.05 1.05 0 0 1 .738.224q.121.112.185.27a.8.8 0 0 1 .058.327 1 1 0 0 1-.075.355.7.7 0 0 1-.288.322c.16.066.291.192.369.355q.048.105.07.219.02.105.02.215a.87.87 0 0 1-.28.652.9.9 0 0 1-.301.179 1.1 1.1 0 0 1-.361.061h-1.71v-.384h.318v-2.418h-.307v-.377zm-.76.371v.992h.69a.57.57 0 0 0 .404-.14.47.47 0 0 0 .15-.349.5.5 0 0 0-.137-.359.62.62 0 0 0-.46-.143zm0 1.33v1.101h.725a.75.75 0 0 0 .287-.048.6.6 0 0 0 .19-.128.5.5 0 0 0 .106-.179.7.7 0 0 0 .033-.205.55.55 0 0 0-.152-.374.584.584 0 0 0-.464-.166zM93.891 71.736c0 .183-.034.365-.098.534a3 3 0 0 1-.254.525 4 4 0 0 1-.359.499q-.202.24-.414.462c-.141.15-.28.287-.413.42q-.202.195-.356.357h1.642v-.587h.423v.992h-2.715v-.372l.395-.387q.217-.212.445-.447.226-.234.44-.486.205-.238.384-.501.159-.234.27-.498.097-.227.1-.476a.7.7 0 0 0-.045-.332.7.7 0 0 0-.187-.27.95.95 0 0 0-.606-.183q-.21.009-.417.06c-.22.06-.43.158-.62.292l-.177-.325a2.1 2.1 0 0 1 1.287-.47q.26 0 .512.072c.148.043.286.119.405.222.113.102.203.23.263.375.066.165.099.344.095.524M97.684 72.792q0 .394-.073.781a2.4 2.4 0 0 1-.242.704c-.11.206-.265.38-.453.508a1.2 1.2 0 0 1-.706.196 1.4 1.4 0 0 1-.773-.19 1.3 1.3 0 0 1-.462-.495 2.1 2.1 0 0 1-.223-.697 5.104 5.104 0 0 1 .002-1.56c.038-.256.115-.504.227-.733.109-.22.268-.408.462-.547.23-.154.5-.229.773-.215.19-.005.38.03.557.104q.223.099.397.277.166.174.266.4.102.23.156.48.055.248.073.504.02.254.019.483m-.497.013q0-.254-.02-.573a2.2 2.2 0 0 0-.12-.6 1.2 1.2 0 0 0-.292-.473.73.73 0 0 0-.537-.192.8.8 0 0 0-.55.182 1.1 1.1 0 0 0-.311.46 2.3 2.3 0 0 0-.135.602q-.03.303-.032.607 0 .343.041.683c.021.192.072.38.15.554.07.151.178.28.312.371.159.099.341.146.525.137a.74.74 0 0 0 .486-.156c.129-.108.231-.248.298-.407q.113-.272.147-.568.038-.313.037-.627zM101.072 72.792q0 .394-.073.781a2.4 2.4 0 0 1-.241.704c-.11.206-.266.38-.453.508a1.2 1.2 0 0 1-.707.196 1.4 1.4 0 0 1-.773-.19 1.3 1.3 0 0 1-.462-.495 2.1 2.1 0 0 1-.222-.697 5.104 5.104 0 0 1 .002-1.56c.038-.256.114-.504.226-.733.11-.22.268-.408.462-.547.231-.154.501-.229.773-.215.191-.005.38.03.558.104q.222.099.397.277.166.174.266.4.102.23.156.48.055.248.073.504.018.254.018.483m-.496.013q0-.254-.021-.573a2.2 2.2 0 0 0-.119-.6 1.24 1.24 0 0 0-.293-.473.73.73 0 0 0-.537-.192.8.8 0 0 0-.55.182 1.1 1.1 0 0 0-.31.46 2.3 2.3 0 0 0-.136.602q-.03.303-.031.607 0 .343.041.683c.02.192.072.38.15.554.07.151.178.28.311.371.16.099.342.146.526.137a.74.74 0 0 0 .485-.156c.13-.108.232-.248.299-.407q.112-.272.147-.568.038-.313.038-.627M101.74 71.67v-1.062h2.482v.385l-1.673 3.942h-.472l1.66-3.922h-1.575v.657zM104.854 74.935v-.384h.318v-2.418h-.3v-.377h2.348v.931h-.369v-.554h-1.182v2.418h.453v.384zM108.266 74.629a.37.37 0 0 1-.101.264.32.32 0 0 1-.236.107.334.334 0 0 1-.248-.107.387.387 0 0 1-.101-.264.38.38 0 0 1 .098-.254.33.33 0 0 1 .374-.08.4.4 0 0 1 .114.08.343.343 0 0 1 .1.254M87.433 25.13c5.961 4.594 8.396 6.484 15.175 12.417h3.364c-5.906-4.71-11.374-9.188-16.843-12.997zM90.55 3.817c.793 1.017.876 1.543.903 1.455 1.969-3.14 5.195-4.333 5.195-4.333s-.986-.407-3.829.668c-2.705.96-4.704-.349-4.704-.349 1.806 1.688 1.779 1.688 2.435 2.56"/><path d="M103.811 20.1a4.1 4.1 0 0 0-1.312-.844 6.8 6.8 0 0 0-1.858-.494 7 7 0 0 0-2.189.088c-.41.087-.792.174-1.12.261q-.491.12-.958.32a7.4 7.4 0 0 1-.547-1.454 15 15 0 0 1-.41-1.744 15.7 15.7 0 0 1-.219-3.025c0-1.052.083-2.102.247-3.14.163-1.026.401-2.037.711-3.024.305-.927.69-1.822 1.149-2.674.443-.758.966-1.46 1.559-2.093a7.73 7.73 0 0 1 3.662-2.269c.083-.058-2.296.174-4.702 1.396-.931.481-1.811 1.066-2.626 1.744a15.5 15.5 0 0 0-2.215 2.268 21.5 21.5 0 0 0-1.641 2.355 24 24 0 0 0-1.23-2.355C87.323.91 83.903.823 83.03.997a5.2 5.2 0 0 0-1.97.755c-.5.314-.936.73-1.284 1.223-.312.441-.535.945-.656 1.482a3.5 3.5 0 0 0-.056 1.482c.057.357.168.701.33 1.019.156.306.37.573.629.785.263.216.559.383.875.495.368.079.746.099 1.12.058a2.43 2.43 0 0 0 1.314-.582c.35-.242.647-.559.874-.93a3.5 3.5 0 0 0 .465-1.046c.07-.314.089-.64.053-.96a1.6 1.6 0 0 0-.245-.583c-.328-.348-1.558.321-2.05 1.047-.083.088 1.203-.668 1.532.234.067.217.067.451 0 .668a3.3 3.3 0 0 1-.247.669c-.15.235-.345.434-.573.582a1.9 1.9 0 0 1-.959.348 1.04 1.04 0 0 1-.738-.058 2.6 2.6 0 0 1-.629-.407q-.276-.301-.467-.668a2.2 2.2 0 0 1-.245-.843 3.5 3.5 0 0 1 0-1.309c.078-.453.236-.887.464-1.279.255-.41.58-.765.958-1.047.452-.341.98-.552 1.532-.612 1.53-.174 3.527.843 5.112 3.227 0 0-1.776 10.759-5.632 15.004l1.203.582c2.706-2.849 4.705-14.044 4.895-14.917.386.563.716 1.167.985 1.803q.51 1.063.903 2.18a25 25 0 0 0-.876 2.065q-.371.976-.575 2.006a12 12 0 0 0-.3 1.804c-.068.484-.05.976.054 1.453.06.437.231.848.493 1.191.135.14.3.244.481.3.182.055.373.063.558.021.51-.071.977-.34 1.312-.756.364-.426.635-.933.793-1.483a10.5 10.5 0 0 0 .3-2.007q0-1.17-.163-2.326a19 19 0 0 0-.821-3.14c.423-.788.907-1.537 1.449-2.238a16 16 0 0 1 1.805-2.095 11.7 11.7 0 0 1 2.188-1.714 9.4 9.4 0 0 1 1.942-.96 14 14 0 0 0-1.531 1.309 12 12 0 0 0-1.64 2.239c-.467.836-.87 1.711-1.206 2.617a17 17 0 0 0-.736 2.877 18 18 0 0 0-.301 2.938c-.01.955.063 1.909.218 2.85q.194 1.045.493 2.063c.203.583.47 1.14.793 1.657-.656.32-21.493 11.951-26.798 5.73a2.7 2.7 0 0 1-.695-1.777 2.7 2.7 0 0 1 .64-1.8c2.105-2.5 10.282-3.81 17.365 1.57l1.448-.61c-7.657-5.467-16.816-4.535-19.415-1.542-1.065 1.28-1.039 2.85.165 4.246 5.003 5.931 21.712-2.181 27.674-5.148.317.436.695.819 1.12 1.134.475.35.99.633 1.531.844.58.23 1.187.367 1.804.407.706.051 1.414.002 2.107-.145.875-.175 1.449-.407 1.776-.7.164-.13.292-.302.374-.5.082-.2.114-.417.093-.632a1.8 1.8 0 0 0-.63-1.047zM91.37 15.884a2.6 2.6 0 0 1-.41 1.047 1.14 1.14 0 0 1-.657.494.52.52 0 0 1-.311.002.55.55 0 0 1-.263-.177c-.163-.174-.246-.436-.327-.843a5.7 5.7 0 0 1-.055-1.221c.055-.495.136-1.018.219-1.57q.205-.873.492-1.832.27-.848.63-1.658.35 1.158.546 2.356.165.938.219 1.89c.03.506.002 1.014-.083 1.512m11.54 5.786c-.247.262-.711.437-1.368.582a4.04 4.04 0 0 1-2.843-.349 5.2 5.2 0 0 1-1.887-1.802c.329-.116.656-.234.984-.379a7.6 7.6 0 0 1 1.148-.32c.56-.099 1.13-.128 1.697-.086.448.048.888.155 1.311.319.324.132.621.33.875.581.185.18.318.412.383.669.054.261-.055.524-.3.785M19.23 53.382h-5.277a9 9 0 0 1-.075-.941l.716-.24c.603-.201.773-.842.773-1.563 0-.22-.019-.441-.038-.661l-.754-6.253-.132-1.363h-.094l-3.845 10.9-1.696.562L5.02 42.241h-.112l-.095 1.302-1.112 7.595c-.057.36 0 .581.207.641l1.715.601q.016.505-.075 1.002H.554a4.2 4.2 0 0 1-.076-.941l.679-.361c.266-.165.494-.39.666-.661.173-.27.287-.579.333-.902l1.47-8.877a1 1 0 0 0-.085-.632.9.9 0 0 0-.443-.43l-1.206-.422q-.003-.473.075-.941h4.316l2.714 7.935.848 2.846h.17l.923-2.926 2.901-7.855h4.11q.09.446.075.902l-.924.32c-.452.14-.81.661-.678 1.542l1.338 9.059c.026.2.1.391.216.553.116.161.269.288.444.368l.885.44a6 6 0 0 1-.075.983M35.274 53.383h-5.673a5.7 5.7 0 0 1-.094-1.003l.923-.32c.66-.2.868-1.042.868-1.583l.037-2.625v-4.269l-6.973 6.994c0 .62.037 1.161.603 1.322l1.602.44q.001.528-.113 1.042H20.5a4 4 0 0 1-.076-.961l1.036-.401c.527-.22.754-.802.754-1.424l.02-2.743V41.66c0-.561-.151-1.022-.584-1.162 0 0-1.094-.36-1.188-.401a3.6 3.6 0 0 1 .076-.882h5.352q.092.467.076.942l-1.018.28c-.471.141-.585.361-.585.902v7.294l6.974-6.994q0-.215-.057-.42a1 1 0 0 0-.229-.5.9.9 0 0 0-.45-.282l-.904-.341a3.5 3.5 0 0 1 .019-.881h5.24q.033.471-.02.941l-.923.261c-.377.14-.547.28-.547.822v6.632l.057 3.166c0 .52.113.781.377.861l1.489.401c.01.365-.027.73-.114 1.084M51.467 53.382h-5.673a4.3 4.3 0 0 1-.076-1.002l.905-.32c.659-.2.867-.661.867-1.583l.037-2.625v-.842h-6.916v.862l.076 3.226c0 .521.132.701.527.802l1.602.44q.001.528-.113 1.042h-5.955a4 4 0 0 1-.076-.961l1.036-.401c.528-.22.735-.622.754-1.424l.019-2.745V41.66c0-.561-.132-1.023-.584-1.163l-1.188-.4q-.015-.447.076-.882h5.352q.093.466.076.942l-1.018.28c-.471.141-.585.361-.585.902v4.209h6.917V41.82c0-.781-.245-1.202-.735-1.382l-.904-.341a3.5 3.5 0 0 1 .018-.881h5.24q.035.471-.019.941l-.923.261c-.377.14-.547.28-.547.822v6.632l.075 3.166c0 .52.113.781.378.861l1.47.401c.012.365-.026.73-.113 1.082M67.716 53.383h-5.673a5.7 5.7 0 0 1-.095-1.003l.924-.32c.66-.2.867-1.042.867-1.583l.038-2.625v-4.269l-6.974 6.994c0 .62.038 1.161.604 1.322l1.602.44q0 .528-.114 1.042H52.94a4 4 0 0 1-.075-.961l1.036-.401c.527-.22.754-.802.754-1.424l.018-2.745V41.66c0-.562-.15-1.023-.584-1.163 0 0-1.093-.36-1.187-.4q-.017-.447.075-.882h5.354q.092.466.076.942l-1.018.28c-.471.141-.585.361-.585.902v7.293l6.973-6.991q0-.215-.057-.42a1 1 0 0 0-.229-.5.9.9 0 0 0-.45-.283l-.904-.34a3.5 3.5 0 0 1 .019-.882h5.24q.034.473-.02.942l-.923.26c-.377.14-.547.281-.547.822v6.632l.057 3.166c0 .521.113.782.377.862l1.489.4c.011.365-.027.73-.113 1.084M76.502 53.523c-4.505 0-7.105-2.204-7.105-7.134 0-4.188 2.714-7.415 7.03-7.415 2.242 0 2.977.401 3.92.822v3.126a8 8 0 0 1-.98.02c-.49-1.463-1.301-2.405-3.016-2.405-2.676 0-4.674 1.583-4.674 5.652 0 3.807 2.167 5.49 5.145 5.49a12.2 12.2 0 0 0 3.204-.38l.452 1.583c-.66.26-1.771.64-3.976.64M93.58 42.702c-.308.08-.627.1-.942.06-.226-1.243-.735-1.984-1.772-2.025l-2.318-.04v7.214l.095 3.307c0 .461.038.641.396.721l1.752.361a7.4 7.4 0 0 1-.075 1.082h-6.39a5.5 5.5 0 0 1-.075-1.082l1.338-.38c.434-.121.755-.842.773-1.383l.056-2.626v-7.213l-2.468.04c-.924.02-1.357.862-1.565 2.024-.327.049-.66.029-.98-.06v-3.487h12.176zM104.796 53.382h-10.46a4.4 4.4 0 0 1-.094-1.061l1.15-.321a.98.98 0 0 0 .56-.375c.141-.19.216-.426.212-.667l.057-3.126V41.54c0-.46-.17-.76-.49-.881l-1.32-.52c-.015-.311.017-.623.095-.923h9.932v3.246a7 7 0 0 1-1.074.04c-.226-1.222-.622-1.722-1.508-1.722l-3.505-.121v4.87l5.107-.1v1.683l-5.107-.1v.862l.094 4.047 3.223-.06c1.376-.04 2.186-.942 2.544-2.024l.98.18zM112.376 48.092h-.679v-1.343l.528-.02c2.072-.08 3.147-.941 3.147-3.045 0-1.784-.81-2.947-2.922-3.006l-1.979-.04v7.274l.056 3.066c0 .46.076.741.415.821l1.922.501q.006.547-.094 1.082h-6.201a6 6 0 0 1-.056-.981l1.036-.322c.433-.14.715-.56.735-1.241l.056-2.926v-6.473a.87.87 0 0 0-.11-.475.8.8 0 0 0-.343-.327l-1.356-.52c-.02-.305.012-.61.094-.902h6.672c2.638 0 4.41 1.282 4.41 4.248.002 2.645-1.788 4.629-5.331 4.629M126.156 53.523c-4.504 0-7.105-2.204-7.105-7.134 0-4.188 2.714-7.415 7.03-7.415 2.242 0 2.977.401 3.92.822v3.126a8 8 0 0 1-.981.02c-.489-1.463-1.3-2.405-3.015-2.405-2.676 0-4.674 1.583-4.674 5.652 0 3.807 2.167 5.49 5.145 5.49a12.2 12.2 0 0 0 3.204-.38l.452 1.583c-.66.26-1.772.64-3.976.64M143.233 42.702c-.309.08-.628.1-.943.06-.226-1.244-.735-1.984-1.771-2.025l-2.318-.04v7.214l.094 3.307c0 .46.038.641.396.72l1.752.362a7 7 0 0 1-.075 1.082h-6.389a5.4 5.4 0 0 1-.075-1.082l1.338-.38c.433-.121.754-.842.773-1.383l.056-2.626v-7.213l-2.468.04c-.925.02-1.358.861-1.565 2.024a2.4 2.4 0 0 1-.98-.06v-3.487h12.175zM150.303 53.383h-6.409a7 7 0 0 1-.075-1.043l1.112-.32c.233-.07.437-.22.58-.427.144-.207.218-.458.212-.715l.057-3.026v-6.453a1 1 0 0 0-.179-.546.9.9 0 0 0-.443-.335l-1.169-.421a2.4 2.4 0 0 1 .094-.882h5.637c3.072 0 4.711 1.122 4.711 3.527 0 1.643-.998 2.585-2.129 3.006-.019 0 0 .06 0 .06 1.017.16 3.091.862 3.091 3.407-.001 2.404-1.49 4.167-5.09 4.167m-1.036-12.765h-1.357v4.769h1.564c2.072 0 2.581-.942 2.581-2.404 0-1.964-1.112-2.365-2.788-2.365m-.039 6.191h-1.318v1.082l.075 4.029h1.96c1.884 0 3.09-.582 3.09-2.546 0-2.003-1.224-2.565-3.807-2.565M163.97 53.623c-4.259 0-6.634-2.465-6.634-6.774 0-4.488 2.884-7.854 7.105-7.854 4.41 0 6.559 2.605 6.559 6.753 0 4.348-2.639 7.875-7.03 7.875m.245-13.026c-3.241 0-4.372 2.626-4.372 5.792 0 3.085 1.074 5.59 4.241 5.59 3.373 0 4.428-2.624 4.428-5.83s-1.206-5.552-4.297-5.552M60.345 63.605H1.9v.529h58.445zM169.573 63.605h-58.444v.529h58.444zM65.884 65.694l-1.427-1.667v.268l.008 1.006a.23.23 0 0 0 .025.14.2.2 0 0 0 .101.095l.347.117q.003.243-.056.478h-2.001a2 2 0 0 1-.032-.436l.276-.076a.34.34 0 0 0 .2-.123.4.4 0 0 0 .084-.23l.008-.947v-1.901a.33.33 0 0 0-.054-.184.3.3 0 0 0-.143-.119l-.332-.133a1.4 1.4 0 0 1 .032-.428h1.978q.033.226.008.452l-.284.1a.3.3 0 0 0-.13.133.33.33 0 0 0-.036.187v1.232l1.246-1.207a.27.27 0 0 0 .079-.167q.005-.046-.01-.09a.2.2 0 0 0-.052-.07l-.268-.134a1.7 1.7 0 0 1 .038-.436h1.727v.37l-1.9 1.7 1.08 1.14q.483.53 1.073.922l-.111.545c-.253 0-1.032-.025-1.474-.537M71.745 66.13h-3.657a1.6 1.6 0 0 1-.04-.47l.323-.075c.127-.025.252-.083.252-.218l.016-1.055v-1.903c0-.134-.024-.2-.134-.242l-.417-.185c-.011-.144.005-.29.046-.427h3.531v1.157a2 2 0 0 1-.504.04c-.078-.434-.212-.518-.442-.527l-1.047-.025v1.333l1.678-.05v.712l-1.678-.058v.184l.023 1.165.883-.025a.8.8 0 0 0 .526-.157.88.88 0 0 0 .318-.472l.488.1zM72.782 65.737l.347-.134a.3.3 0 0 0 .14-.133.34.34 0 0 0 .041-.194l.008-.956V62.31a.27.27 0 0 0-.047-.18.24.24 0 0 0-.15-.097l-.323-.101q.003-.192.055-.377h1.955q.043.186.04.377l-.355.109c-.104.033-.15.084-.15.252v1.944L76.4 62.57V62.3a.26.26 0 0 0-.044-.166.23.23 0 0 0-.137-.094l-.315-.109a1.5 1.5 0 0 1 .023-.377h1.94q.03.188.015.377l-.322.109c-.095.033-.135.06-.135.202v2.078l.016 1.014c.008.184.04.227.087.235l.481.15q0 .212-.064.411h-2.033a2 2 0 0 1-.023-.402l.315-.134a.32.32 0 0 0 .138-.133.35.35 0 0 0 .043-.194l.015-.955v-.93l-2.049 1.658.016.285a.25.25 0 0 0 .034.169c.03.05.078.085.132.1l.402.125q-.007.208-.048.411h-2.064a2 2 0 0 1-.04-.393m2.176-4.953c-.599 0-.984-.303-.984-.788a.83.83 0 0 1 .21-.489.75.75 0 0 1 .451-.24c.189.444.276.812.63.812.371.009.907-.294 1.294-.628l.307.376c-.253.285-1.143.957-1.909.957zM82.396 62.861c-.08-.418-.22-.628-.513-.645l-.685-.008v2.138l.032 1.005c0 .11 0 .143.078.159l.591.118a2.2 2.2 0 0 1-.047.502h-2.333a2.2 2.2 0 0 1-.024-.502l.457-.126a.32.32 0 0 0 .148-.139.35.35 0 0 0 .041-.205l.024-.812v-2.138l-.615.008c-.315.008-.472.142-.575.645a2.5 2.5 0 0 1-.473-.04v-1.267h4.367v1.282a1.1 1.1 0 0 1-.473.025M87.106 66.13h-3.657a1.6 1.6 0 0 1-.04-.47l.323-.075c.127-.025.253-.083.253-.218L84 64.312v-1.903c0-.134-.023-.2-.134-.242l-.417-.185a1.2 1.2 0 0 1 .046-.427h3.532v1.157a2 2 0 0 1-.505.04c-.078-.434-.212-.518-.441-.527l-1.048-.025v1.333l1.679-.05v.712l-1.679-.058v.184l.024 1.165.883-.025a.8.8 0 0 0 .525-.157.88.88 0 0 0 .318-.472l.489.1zM90.422 64.513h-.347v-.587l.158-.008c.607-.025.93-.26.93-.882 0-.903-.796-.828-1.42-.846v2.155l.017 1.005c.008.11.023.143.086.152l.67.158q.005.238-.047.47h-2.294a1.7 1.7 0 0 1-.031-.445l.315-.083a.3.3 0 0 0 .174-.113.32.32 0 0 0 .063-.206l.015-.938v-1.979a.2.2 0 0 0-.025-.109.2.2 0 0 0-.077-.075l-.456-.177a1.2 1.2 0 0 1 .047-.452h2.499c.874 0 1.576.403 1.576 1.383 0 .906-.719 1.577-1.854 1.577M92.894 65.737l.346-.134a.3.3 0 0 0 .14-.133.34.34 0 0 0 .041-.195l.008-.955V62.31a.27.27 0 0 0-.047-.18.24.24 0 0 0-.15-.097l-.323-.101q.003-.193.055-.377h1.954q.045.185.04.377l-.354.109c-.104.033-.15.084-.15.252v1.944l2.057-1.667V62.3a.26.26 0 0 0-.044-.167.23.23 0 0 0-.138-.093l-.314-.109a1.5 1.5 0 0 1 .023-.377h1.939q.03.187.016.377l-.323.109c-.095.033-.134.06-.134.202v2.078l.015 1.014c.008.184.04.226.088.235l.48.15q0 .212-.062.411h-2.034a2 2 0 0 1-.024-.402l.316-.134a.32.32 0 0 0 .138-.133.35.35 0 0 0 .043-.194l.016-.955v-.93l-2.05 1.658.017.285a.25.25 0 0 0 .034.169c.03.05.077.085.131.1l.402.125q-.007.208-.047.411h-2.066a2 2 0 0 1-.04-.393M104.208 66.13h-2.041a4 4 0 0 1-.023-.402l.315-.134a.32.32 0 0 0 .144-.131.34.34 0 0 0 .045-.196l.007-.955v-.151h-2.041v.16l.016 1.055a.25.25 0 0 0 .052.14.22.22 0 0 0 .121.078l.402.125q-.006.208-.047.411h-2.065a1.7 1.7 0 0 1-.04-.393l.347-.134a.3.3 0 0 0 .14-.133.34.34 0 0 0 .042-.195l.008-.955V62.31a.27.27 0 0 0-.048-.18.24.24 0 0 0-.15-.097l-.323-.101q.003-.192.055-.377h1.955q.038.186.039.377l-.354.109c-.103.033-.15.084-.15.252v1.215h2.041v-1.165a.3.3 0 0 0-.04-.185.27.27 0 0 0-.14-.117l-.308-.109a1.2 1.2 0 0 1 .015-.377h1.948q.027.188.008.377l-.323.109c-.088.033-.126.06-.126.202v2.078l.015 1.014c0 .184.04.226.087.235l.473.15q-.003.21-.056.411M108.319 62.861c-.07-.377-.283-.61-.56-.62l-.961-.041v2.145l.015.955a.2.2 0 0 0 .038.133.17.17 0 0 0 .113.07l.67.133q.001.251-.056.494h-2.342a2 2 0 0 1-.039-.444l.267-.067a.3.3 0 0 0 .203-.104.34.34 0 0 0 .082-.222l.015-.98v-1.92c0-.117-.032-.201-.134-.235l-.402-.159q-.018-.225.032-.444h3.539v1.282q-.239.056-.48.024"/></g><defs><clipPath id="a"><path fill="#fff" d="M.474 0H171v75H.474z"/></clipPath></defs></svg>