<svg xmlns="http://www.w3.org/2000/svg" width="54" height="51" fill="none">
  <g fill="#ffffff" clip-path="url(#a)">
    <path
        d="M28.267 34.323c7.971 6.142 11.226 8.668 20.29 16.6h4.499c-7.897-6.297-15.208-12.284-22.521-17.377zM32.436 5.826c1.06 1.36 1.17 2.063 1.207 1.945 2.633-4.199 6.946-5.793 6.946-5.793s-1.318-.544-5.12.893c-3.617 1.284-6.289-.467-6.289-.467 2.415 2.257 2.378 2.257 3.255 3.422"/>
    <path
        d="M50.167 27.597a5.4 5.4 0 0 0-1.755-1.128 9.1 9.1 0 0 0-2.484-.661 9.3 9.3 0 0 0-2.926.118c-.55.116-1.06.233-1.5.349q-.655.161-1.28.427a10 10 0 0 1-.73-1.944 20 20 0 0 1-.55-2.332 21 21 0 0 1-.291-4.044 27 27 0 0 1 .33-4.198c.218-1.372.536-2.723.95-4.043.408-1.24.922-2.437 1.536-3.576a15.7 15.7 0 0 1 2.085-2.798A10.34 10.34 0 0 1 48.449.733c.11-.078-3.07.233-6.288 1.867a19.5 19.5 0 0 0-3.51 2.332 20.7 20.7 0 0 0-2.962 3.032 29 29 0 0 0-2.194 3.149 31 31 0 0 0-1.645-3.15c-3.728-6.024-8.3-6.14-9.47-5.907-.93.15-1.825.493-2.631 1.01A6 6 0 0 0 18.03 4.7a5.5 5.5 0 0 0-.877 1.981 4.6 4.6 0 0 0-.075 1.983c.076.476.225.936.441 1.361.208.409.494.767.84 1.05a3.9 3.9 0 0 0 1.17.662 4.7 4.7 0 0 0 1.499.078 3.25 3.25 0 0 0 1.756-.779 4.1 4.1 0 0 0 1.169-1.243c.28-.426.49-.899.621-1.399.095-.42.12-.855.071-1.284a2.1 2.1 0 0 0-.327-.778c-.438-.466-2.083.428-2.74 1.399-.112.118 1.608-.894 2.047.313.09.29.09.603 0 .893q-.119.466-.33.894c-.2.315-.461.58-.766.778a2.57 2.57 0 0 1-1.282.466c-.328.097-.677.07-.987-.077a3.5 3.5 0 0 1-.84-.545 4.2 4.2 0 0 1-.625-.893 2.9 2.9 0 0 1-.328-1.127 4.7 4.7 0 0 1 0-1.75 5.1 5.1 0 0 1 .62-1.71 5 5 0 0 1 1.282-1.4 4.1 4.1 0 0 1 2.048-.818c2.045-.233 4.715 1.127 6.834 4.315 0 0-2.374 14.384-7.53 20.06l1.61.778c3.617-3.809 6.289-18.777 6.544-19.945.516.753.957 1.561 1.316 2.412q.682 1.42 1.207 2.915a34 34 0 0 0-1.17 2.76 16.6 16.6 0 0 0-.77 2.683c-.195.79-.33 1.597-.401 2.411a5.6 5.6 0 0 0 .072 1.943c.082.584.31 1.134.66 1.593.18.187.401.325.644.4.242.075.498.085.745.029a2.75 2.75 0 0 0 1.754-1.01c.487-.57.85-1.248 1.061-1.984.22-.878.354-1.777.401-2.684a22.6 22.6 0 0 0-.219-3.11 25.4 25.4 0 0 0-1.097-4.198 21.6 21.6 0 0 1 1.937-2.992 21.7 21.7 0 0 1 2.414-2.8 15.7 15.7 0 0 1 2.925-2.293c.818-.529 1.69-.959 2.597-1.283a18.4 18.4 0 0 0-2.048 1.75 16 16 0 0 0-2.192 2.993 25 25 0 0 0-1.612 3.499 23 23 0 0 0-.985 3.848 24 24 0 0 0-.402 3.928 22 22 0 0 0 .29 3.809q.26 1.399.661 2.759c.272.78.627 1.523 1.06 2.216-.877.428-28.738 15.979-35.83 7.66a3.6 3.6 0 0 1-.929-2.375 3.62 3.62 0 0 1 .854-2.407c2.816-3.343 13.749-5.093 23.219 2.1l1.936-.816C17.737 24.41 5.49 25.655 2.016 29.657c-1.424 1.712-1.39 3.81.22 5.677 6.69 7.93 29.03-2.916 37-6.883.425.583.93 1.095 1.5 1.517a8.9 8.9 0 0 0 2.046 1.128c.775.307 1.587.49 2.412.544.943.068 1.89.003 2.817-.195 1.17-.233 1.937-.543 2.375-.935.218-.173.39-.404.5-.67a1.8 1.8 0 0 0 .124-.844 2.4 2.4 0 0 0-.843-1.4M33.532 21.96a3.45 3.45 0 0 1-.547 1.4c-.207.327-.52.562-.88.66a.7.7 0 0 1-.415.004.73.73 0 0 1-.351-.237c-.22-.233-.33-.583-.438-1.128a7.7 7.7 0 0 1-.074-1.632c.074-.662.183-1.36.293-2.1q.274-1.166.658-2.449.36-1.133.843-2.216.466 1.547.729 3.149.22 1.254.293 2.528c.04.676.003 1.355-.11 2.021m15.43 7.736c-.33.35-.95.584-1.83.778a5.4 5.4 0 0 1-3.8-.466 6.95 6.95 0 0 1-2.523-2.41c.439-.155.877-.313 1.316-.506q.751-.275 1.534-.428a9.2 9.2 0 0 1 2.269-.116 7 7 0 0 1 1.753.427c.433.176.83.44 1.17.777.247.24.425.55.512.894.072.35-.073.701-.401 1.05"/>
  </g>
  <defs>
    <clipPath id="a">
      <path fill="#fff" d="M0 0h54v51H0z"/>
    </clipPath>
  </defs>
</svg>