<svg width="24" height="24" viewBox="0 0 24 24" fill="none" xmlns="http://www.w3.org/2000/svg">
<path d="M12.0058 0.181641C7.07103 0.181641 5.6278 0.186732 5.34726 0.210004C4.33457 0.294186 3.70441 0.453641 3.01788 0.795459C2.48881 1.05819 2.07155 1.36273 1.65974 1.78964C0.909762 2.56819 0.45523 3.52601 0.29069 4.66455C0.210692 5.21728 0.18742 5.33001 0.182693 8.15328C0.180875 9.09437 0.182693 10.3329 0.182693 11.9942C0.182693 16.9251 0.188147 18.3669 0.211783 18.6469C0.293599 19.6324 0.448139 20.2524 0.775402 20.9306C1.40084 22.2287 2.59535 23.2033 4.00258 23.5669C4.48984 23.6924 5.028 23.7615 5.71889 23.7942C6.01161 23.8069 8.99515 23.816 11.9805 23.816C14.9659 23.816 17.9512 23.8124 18.2367 23.7978C19.0367 23.7602 19.5012 23.6978 20.0148 23.5651C21.4311 23.1996 22.6038 22.2396 23.242 20.9233C23.5629 20.2615 23.7256 19.6178 23.7993 18.6838C23.8153 18.4802 23.822 15.2335 23.822 11.9911C23.822 8.74819 23.8147 5.50746 23.7987 5.30382C23.7242 4.35473 23.5614 3.71655 23.2302 3.042C22.9584 2.48982 22.6566 2.07746 22.2184 1.65582C21.4364 0.908913 20.4801 0.454368 19.3405 0.290004C18.7883 0.210186 18.6783 0.18655 15.8529 0.181641H12.0058Z" fill="url(#paint0_radial_493_2873)"/>
<path d="M12.0058 0.181641C7.07103 0.181641 5.6278 0.186732 5.34726 0.210004C4.33457 0.294186 3.70441 0.453641 3.01788 0.795459C2.48881 1.05819 2.07155 1.36273 1.65974 1.78964C0.909762 2.56819 0.45523 3.52601 0.29069 4.66455C0.210692 5.21728 0.18742 5.33001 0.182693 8.15328C0.180875 9.09437 0.182693 10.3329 0.182693 11.9942C0.182693 16.9251 0.188147 18.3669 0.211783 18.6469C0.293599 19.6324 0.448139 20.2524 0.775402 20.9306C1.40084 22.2287 2.59535 23.2033 4.00258 23.5669C4.48984 23.6924 5.028 23.7615 5.71889 23.7942C6.01161 23.8069 8.99515 23.816 11.9805 23.816C14.9659 23.816 17.9512 23.8124 18.2367 23.7978C19.0367 23.7602 19.5012 23.6978 20.0148 23.5651C21.4311 23.1996 22.6038 22.2396 23.242 20.9233C23.5629 20.2615 23.7256 19.6178 23.7993 18.6838C23.8153 18.4802 23.822 15.2335 23.822 11.9911C23.822 8.74819 23.8147 5.50746 23.7987 5.30382C23.7242 4.35473 23.5614 3.71655 23.2302 3.042C22.9584 2.48982 22.6566 2.07746 22.2184 1.65582C21.4364 0.908913 20.4801 0.454368 19.3405 0.290004C18.7883 0.210186 18.6783 0.18655 15.8529 0.181641H12.0058Z" fill="url(#paint1_radial_493_2873)"/>
<path d="M12.0002 3.27344C9.63009 3.27344 9.33264 3.2838 8.40176 3.32616C7.4727 3.36871 6.83854 3.5158 6.28364 3.73162C5.70966 3.95453 5.22277 4.25271 4.73769 4.73798C4.25225 5.22307 3.95408 5.70998 3.73045 6.2838C3.51409 6.83889 3.36682 7.47326 3.325 8.40198C3.28337 9.33289 3.27246 9.63053 3.27246 12.0007C3.27246 14.3709 3.28301 14.6674 3.32519 15.5983C3.36791 16.5274 3.515 17.1616 3.73063 17.7165C3.95371 18.2905 4.25189 18.7774 4.73714 19.2625C5.22204 19.748 5.70893 20.0469 6.28255 20.2698C6.83781 20.4856 7.47215 20.6327 8.40103 20.6753C9.33191 20.7176 9.62918 20.728 11.9991 20.728C14.3694 20.728 14.6659 20.7176 15.5968 20.6753C16.5259 20.6327 17.1608 20.4856 17.716 20.2698C18.2898 20.0469 18.776 19.748 19.2609 19.2625C19.7463 18.7774 20.0445 18.2905 20.2681 17.7167C20.4827 17.1616 20.6299 16.5273 20.6736 15.5985C20.7154 14.6676 20.7263 14.3709 20.7263 12.0007C20.7263 9.63053 20.7154 9.33307 20.6736 8.40217C20.6299 7.47307 20.4827 6.83889 20.2681 6.28398C20.0445 5.70998 19.7463 5.22307 19.2609 4.73798C18.7754 4.25253 18.29 3.95435 17.7155 3.73162C17.1591 3.5158 16.5246 3.36871 15.5955 3.32616C14.6647 3.2838 14.3683 3.27344 11.9975 3.27344H12.0002ZM11.2173 4.84616C11.4497 4.8458 11.7089 4.84616 12.0002 4.84616C14.3303 4.84616 14.6065 4.85453 15.5266 4.89635C16.3775 4.93526 16.8393 5.07744 17.147 5.19689C17.5542 5.35507 17.8446 5.54416 18.1498 5.84962C18.4553 6.15507 18.6444 6.44598 18.8029 6.85326C18.9224 7.16053 19.0647 7.62235 19.1034 8.47326C19.1453 9.39326 19.1543 9.66962 19.1543 11.9987C19.1543 14.3278 19.1453 14.6042 19.1034 15.5242C19.0645 16.3751 18.9224 16.8369 18.8029 17.1442C18.6447 17.5514 18.4553 17.8414 18.1498 18.1467C17.8444 18.4522 17.5544 18.6413 17.147 18.7994C16.8397 18.9194 16.3775 19.0613 15.5266 19.1002C14.6067 19.142 14.3303 19.1511 12.0002 19.1511C9.6699 19.1511 9.39373 19.142 8.47376 19.1002C7.62288 19.0609 7.16107 18.9187 6.85326 18.7993C6.446 18.6411 6.1551 18.452 5.84966 18.1465C5.54421 17.8411 5.35513 17.5509 5.19658 17.1434C5.07713 16.8362 4.93477 16.3743 4.89605 15.5234C4.85423 14.6034 4.84587 14.3271 4.84587 11.9965C4.84587 9.66598 4.85423 9.39107 4.89605 8.47107C4.93496 7.62017 5.07713 7.15835 5.19658 6.85071C5.35476 6.44344 5.54421 6.15253 5.84966 5.84707C6.1551 5.54162 6.446 5.35253 6.85326 5.19398C7.16089 5.07398 7.62288 4.93217 8.47376 4.89307C9.27883 4.85671 9.59082 4.8458 11.2173 4.84398V4.84616ZM16.6586 6.29526C16.0804 6.29526 15.6114 6.7638 15.6114 7.34216C15.6114 7.92035 16.0804 8.38944 16.6586 8.38944C17.2368 8.38944 17.7058 7.92035 17.7058 7.34216C17.7058 6.76398 17.2368 6.29489 16.6586 6.29489V6.29526ZM12.0002 7.51889C9.52518 7.51889 7.51851 9.52562 7.51851 12.0007C7.51851 14.4758 9.52518 16.4816 12.0002 16.4816C14.4752 16.4816 16.4812 14.4758 16.4812 12.0007C16.4812 9.52562 14.4752 7.51889 12.0002 7.51889ZM12.0002 9.09162C13.6067 9.09162 14.9092 10.394 14.9092 12.0007C14.9092 13.6073 13.6067 14.9098 12.0002 14.9098C10.3935 14.9098 9.0912 13.6073 9.0912 12.0007C9.0912 10.394 10.3935 9.09162 12.0002 9.09162Z" fill="white"/>
<defs>
<radialGradient id="paint0_radial_493_2873" cx="0" cy="0" r="1" gradientUnits="userSpaceOnUse" gradientTransform="translate(6.46132 25.6364) rotate(-90) scale(23.4234 21.7909)">
<stop stop-color="#FFDD55"/>
<stop offset="0.1" stop-color="#FFDD55"/>
<stop offset="0.5" stop-color="#FF543E"/>
<stop offset="1" stop-color="#C837AB"/>
</radialGradient>
<radialGradient id="paint1_radial_493_2873" cx="0" cy="0" r="1" gradientUnits="userSpaceOnUse" gradientTransform="translate(-3.77796 1.88422) rotate(78.678) scale(10.4705 43.1693)">
<stop stop-color="#3771C8"/>
<stop offset="0.128" stop-color="#3771C8"/>
<stop offset="1" stop-color="#6600FF" stop-opacity="0"/>
</radialGradient>
</defs>
</svg>
