<svg width="25" height="26" viewBox="0 0 25 26" fill="none" xmlns="http://www.w3.org/2000/svg">
<g clip-path="url(#clip0_493_2863)">
<path d="M22 13C22 17.9706 17.9706 22 13 22C8.02944 22 4 17.9706 4 13C4 8.02944 8.02944 4 13 4C17.9706 4 22 8.02944 22 13Z" fill="white"/>
<path d="M12.5 0.40625C5.59642 0.40625 0 6.04464 0 13C0 19.9554 5.59642 25.5938 12.5 25.5938C19.4036 25.5938 25 19.9554 25 13C25 6.04464 19.4036 0.40625 12.5 0.40625ZM18.294 8.97102C18.1058 10.9624 17.2919 15.7949 16.8776 18.0253C16.7024 18.969 16.3574 19.2855 16.0234 19.3164C15.2976 19.3838 14.7463 18.8331 14.0432 18.3688C12.943 17.6422 12.3215 17.1899 11.2536 16.4809C10.0195 15.6615 10.8195 15.2114 11.5228 14.475C11.7069 14.2824 14.9052 11.3515 14.9671 11.0856C14.9748 11.0523 14.9823 10.9282 14.909 10.863C14.8357 10.7978 14.728 10.8199 14.6502 10.8376C14.5398 10.8628 12.7823 12.0332 9.37757 14.3487C8.87875 14.6938 8.4269 14.862 8.02203 14.8532C7.57571 14.8435 6.71719 14.5989 6.07893 14.3899C5.29612 14.1335 4.67394 13.998 4.72813 13.5626C4.75635 13.3358 5.06633 13.1039 5.65806 12.8669C9.30208 11.2674 11.732 10.2128 12.9478 9.70323C16.4192 8.2485 17.1405 7.99581 17.6106 7.98738C17.7141 7.98566 17.9453 8.01145 18.095 8.13389C18.1946 8.2211 18.2581 8.34281 18.2729 8.47493C18.2983 8.63898 18.3054 8.80538 18.294 8.97102Z" fill="#0088CC"/>
</g>
<defs>
<clipPath id="clip0_493_2863">
<rect width="25" height="26" fill="white"/>
</clipPath>
</defs>
</svg>
