<svg width="24" height="24" viewBox="0 0 24 24" fill="none" xmlns="http://www.w3.org/2000/svg">
<path d="M3.24375 23.0625C2.60625 23.0625 2.0625 22.8375 1.6125 22.3875C1.1625 21.9375 0.9375 21.3938 0.9375 20.7563V3.24375C0.9375 2.60625 1.1625 2.0625 1.6125 1.6125C2.0625 1.1625 2.60625 0.9375 3.24375 0.9375H20.7563C21.3938 0.9375 21.9375 1.1625 22.3875 1.6125C22.8375 2.0625 23.0625 2.60625 23.0625 3.24375V20.7563C23.0625 21.3938 22.8375 21.9375 22.3875 22.3875C21.9375 22.8375 21.3938 23.0625 20.7563 23.0625H3.24375ZM16.7625 16.7344C16.8281 16.7344 16.875 16.7344 16.8938 16.725L18.9 16.6969C18.9375 16.6969 18.9938 16.6875 19.0688 16.6781C19.1438 16.6688 19.2563 16.6219 19.3969 16.5563C19.5375 16.4906 19.6406 16.3969 19.7063 16.275C19.7531 16.2 19.7719 16.1063 19.7719 16.0125C19.7719 15.8625 19.7156 15.6938 19.6031 15.5063C19.35 15.0375 18.825 14.4375 18.0375 13.7063C17.7563 13.4531 17.5688 13.2563 17.475 13.1438C17.3719 13.0219 17.325 12.9094 17.325 12.7875C17.325 12.6656 17.3719 12.5344 17.4656 12.3844C17.5594 12.2344 17.7469 11.9906 18.0188 11.6438L18.5344 10.9594C19.3594 9.8625 19.7719 9.09375 19.7719 8.65313C19.7719 8.5875 19.7625 8.52188 19.7438 8.46563C19.6594 8.22188 19.3969 8.10938 18.9656 8.10938C18.8438 8.10938 18.7688 8.10938 18.75 8.11875L16.4344 8.12813C16.3031 8.12813 16.1906 8.15625 16.1063 8.2125C15.9844 8.27813 15.9 8.39063 15.825 8.54063C15.5438 9.24375 15.2719 9.825 14.9906 10.2938C14.8313 10.5656 14.6813 10.8 14.5406 11.0063C14.4 11.2125 14.2875 11.3719 14.1938 11.4844C14.1 11.5969 14.0156 11.6813 13.9406 11.7563C13.8656 11.8219 13.8094 11.8781 13.7625 11.8969C13.725 11.925 13.6875 11.9344 13.6594 11.9344C13.5188 11.8406 13.4438 11.5781 13.4438 11.1375V10.8375L13.4531 10.5563C13.4531 10.2938 13.4625 9.95625 13.4813 9.5625C13.4906 9.3 13.4906 9.1125 13.4906 9C13.4906 8.65313 13.4438 8.38125 13.3594 8.20313C13.275 8.025 13.0875 7.89375 12.8156 7.82813C12.5344 7.7625 12.1594 7.725 11.7094 7.71563H11.3906C10.5844 7.71563 10.0406 7.78125 9.75 7.93125C9.61875 7.99688 9.50625 8.08125 9.40313 8.20313C9.3 8.325 9.2625 8.4375 9.28125 8.55L9.32813 8.64375L9.42188 8.7L9.46875 8.70938C9.72188 8.7375 9.90938 8.83125 10.0219 8.97188C10.1438 9.14063 10.2094 9.45 10.2094 9.9C10.2188 10.1063 10.2281 10.3031 10.2281 10.5C10.2281 10.8844 10.2 11.2125 10.1531 11.4844C10.1063 11.7469 10.0313 11.9063 9.92813 11.9531C9.69375 11.9531 9.25313 11.3906 8.59688 10.275C8.31563 9.77813 8.05313 9.225 7.8 8.60625C7.74375 8.46563 7.65938 8.35313 7.55625 8.27813C7.41563 8.175 7.26563 8.11875 7.10625 8.1L4.94063 8.11875C4.66875 8.11875 4.47188 8.18438 4.35938 8.33438C4.29375 8.40938 4.26563 8.50313 4.26563 8.625C4.26563 8.72813 4.28438 8.82188 4.32188 8.925C4.36875 9.04688 4.43438 9.19688 4.51875 9.38438C4.60313 9.5625 4.77188 9.92813 5.04375 10.4625C5.30625 10.9969 5.57813 11.5031 5.85 11.9813C6.12188 12.4594 6.45 12.975 6.83438 13.5375C7.21875 14.1 7.59375 14.5688 7.95938 14.9438C8.25938 15.2531 8.57813 15.525 8.925 15.7594C9.27188 15.9938 9.58125 16.1625 9.85313 16.2844C10.1344 16.4063 10.4156 16.4906 10.7063 16.5656C10.9969 16.6313 11.2219 16.6781 11.3813 16.6969C11.5406 16.7156 11.6906 16.7156 11.8313 16.7156H12.7688C12.9938 16.6875 13.1719 16.6031 13.2938 16.4719C13.4156 16.35 13.4719 16.1719 13.4719 15.9563C13.4719 15.8906 13.4719 15.8156 13.4813 15.7313C13.4906 15.6469 13.5 15.5531 13.5188 15.4313C13.5375 15.3188 13.5656 15.2156 13.5938 15.1219C13.6313 15.0281 13.6688 14.9438 13.7344 14.8688C13.7906 14.7938 13.8563 14.7469 13.9313 14.7281C14.0063 14.7281 14.1 14.775 14.2125 14.8594C14.325 14.9438 14.4188 15.0375 14.5031 15.1219C14.5781 15.2063 14.7 15.3375 14.8406 15.5063C15.2344 15.9563 15.5344 16.2469 15.7406 16.3875C16.0969 16.6219 16.4344 16.7344 16.7625 16.7344Z" fill="#4C75A3"/>
</svg>
