<svg width="26" height="26" viewBox="0 0 26 26" fill="none" xmlns="http://www.w3.org/2000/svg">
<path d="M26 13C26 20.1797 20.1797 26 13 26C5.8203 26 0 20.1797 0 13C0 5.8203 5.8203 0 13 0C20.1797 0 26 5.8203 26 13Z" fill="#128C7E"/>
<path d="M18.6036 7.41367C17.1071 5.93711 15.1143 5.125 12.9964 5.125C8.625 5.125 5.06786 8.62656 5.06786 12.9297C5.06786 14.3043 5.43214 15.6473 6.125 16.832L5 20.875L9.20357 19.7887C10.3607 20.4109 11.6643 20.7379 12.9929 20.7379H12.9964C17.3643 20.7379 21 17.2363 21 12.9332C21 10.8484 20.1 8.89023 18.6036 7.41367ZM12.9964 19.423C11.8107 19.423 10.65 19.1102 9.63929 18.5195L9.4 18.3789L6.90714 19.0223L7.57143 16.6281L7.41429 16.382C6.75357 15.3484 6.40714 14.1566 6.40714 12.9297C6.40714 9.3543 9.36429 6.44336 13 6.44336C14.7607 6.44336 16.4143 7.11836 17.6571 8.34531C18.9 9.57227 19.6643 11.2 19.6607 12.9332C19.6607 16.5121 16.6286 19.423 12.9964 19.423ZM16.6107 14.5645C16.4143 14.466 15.4393 13.9949 15.2571 13.9316C15.075 13.8648 14.9429 13.8332 14.8107 14.0301C14.6786 14.227 14.3 14.6629 14.1821 14.7965C14.0679 14.9266 13.95 14.9441 13.7536 14.8457C12.5893 14.2727 11.825 13.8227 11.0571 12.5254C10.8536 12.1809 11.2607 12.2055 11.6393 11.4602C11.7036 11.3301 11.6714 11.2176 11.6214 11.1191C11.5714 11.0207 11.175 10.0609 11.0107 9.6707C10.85 9.29102 10.6857 9.34375 10.5643 9.33672C10.45 9.32969 10.3179 9.32969 10.1857 9.32969C10.0536 9.32969 9.83929 9.37891 9.65714 9.57227C9.475 9.76914 8.96429 10.2402 8.96429 11.2C8.96429 12.1598 9.675 13.0879 9.77143 13.218C9.87143 13.348 11.1679 15.3168 13.1571 16.1641C14.4143 16.6984 14.9071 16.7441 15.5357 16.6527C15.9179 16.5965 16.7071 16.1816 16.8714 15.7246C17.0357 15.2676 17.0357 14.8773 16.9857 14.7965C16.9393 14.7086 16.8071 14.6594 16.6107 14.5645Z" fill="white"/>
</svg>
