<svg xmlns="http://www.w3.org/2000/svg" width="54" height="43" fill="none"><path fill="#fff" d="M51.167 29.596a5.4 5.4 0 0 0-1.755-1.127 9 9 0 0 0-2.484-.661 9.3 9.3 0 0 0-2.926.118c-.55.116-1.06.233-1.5.349q-.655.161-1.28.427a10 10 0 0 1-.73-1.944 20 20 0 0 1-.55-2.332 21 21 0 0 1-.291-4.044 27 27 0 0 1 .33-4.198c.218-1.372.536-2.724.95-4.043a22 22 0 0 1 1.536-3.576 15.7 15.7 0 0 1 2.085-2.798 10.34 10.34 0 0 1 4.897-3.034c.11-.078-3.07.233-6.288 1.867a19.5 19.5 0 0 0-3.51 2.332 20.7 20.7 0 0 0-2.962 3.032 29 29 0 0 0-2.194 3.149 31 31 0 0 0-1.645-3.15c-3.728-6.024-8.3-6.14-9.47-5.907-.93.15-1.825.493-2.631 1.01A6 6 0 0 0 19.03 6.7a5.5 5.5 0 0 0-.877 1.981 4.6 4.6 0 0 0-.075 1.983c.076.476.225.936.441 1.361.208.409.494.767.84 1.05a3.9 3.9 0 0 0 1.17.662 4.7 4.7 0 0 0 1.499.078 3.25 3.25 0 0 0 1.756-.78 4.1 4.1 0 0 0 1.169-1.243c.28-.425.49-.898.621-1.398.095-.42.12-.855.071-1.284a2.1 2.1 0 0 0-.327-.779c-.438-.465-2.083.43-2.74 1.4-.112.118 1.608-.894 2.047.313.09.29.09.603 0 .893q-.119.467-.33.894c-.2.315-.461.58-.766.778a2.57 2.57 0 0 1-1.282.466c-.328.097-.677.07-.987-.077a3.5 3.5 0 0 1-.84-.545 4.2 4.2 0 0 1-.625-.893 2.9 2.9 0 0 1-.328-1.127 4.7 4.7 0 0 1 0-1.75 5.1 5.1 0 0 1 .62-1.71 5 5 0 0 1 1.282-1.4 4.1 4.1 0 0 1 2.048-.818c2.045-.233 4.715 1.127 6.834 4.314 0 0-2.374 14.385-7.53 20.061l1.61.778c3.617-3.809 6.289-18.777 6.544-19.945.516.753.957 1.561 1.316 2.412q.681 1.421 1.207 2.914a34 34 0 0 0-1.17 2.76 16.6 16.6 0 0 0-.77 2.684c-.195.79-.33 1.597-.401 2.411a5.6 5.6 0 0 0 .072 1.942c.082.585.31 1.135.66 1.594.18.187.401.325.644.4.242.075.498.085.745.029a2.75 2.75 0 0 0 1.754-1.011c.487-.57.85-1.247 1.061-1.984a14 14 0 0 0 .401-2.683 22.6 22.6 0 0 0-.219-3.11 25.4 25.4 0 0 0-1.097-4.198 21.6 21.6 0 0 1 1.937-2.993 21.7 21.7 0 0 1 2.414-2.8 15.7 15.7 0 0 1 2.925-2.292c.818-.529 1.69-.96 2.597-1.283a18.4 18.4 0 0 0-2.048 1.75 16 16 0 0 0-2.192 2.993 25 25 0 0 0-1.612 3.499 23 23 0 0 0-.985 3.848 24 24 0 0 0-.402 3.928 22 22 0 0 0 .29 3.809q.26 1.398.661 2.759c.272.78.627 1.523 1.06 2.216-.877.428-28.738 15.979-35.83 7.66a3.6 3.6 0 0 1-.929-2.375 3.62 3.62 0 0 1 .854-2.407c2.816-3.343 13.749-5.093 23.219 2.1l1.936-.816c-10.237-7.31-22.484-6.064-25.958-2.062-1.424 1.711-1.39 3.81.22 5.677 6.69 7.93 29.03-2.916 37-6.883.425.583.93 1.095 1.5 1.517a8.9 8.9 0 0 0 2.046 1.127c.775.308 1.587.491 2.412.545.943.068 1.89.002 2.817-.195 1.17-.233 1.937-.544 2.375-.935.218-.173.39-.404.5-.67a1.8 1.8 0 0 0 .124-.844 2.4 2.4 0 0 0-.843-1.4M34.532 23.96a3.45 3.45 0 0 1-.547 1.4c-.207.327-.52.562-.88.66a.7.7 0 0 1-.415.003.73.73 0 0 1-.351-.236c-.22-.233-.33-.583-.438-1.128a7.7 7.7 0 0 1-.074-1.633c.074-.662.183-1.36.293-2.099q.274-1.167.658-2.449.36-1.133.843-2.216.466 1.547.729 3.148.22 1.255.293 2.53c.04.675.003 1.354-.11 2.02m15.43 7.736c-.33.35-.95.584-1.83.777a5.4 5.4 0 0 1-3.8-.465 6.95 6.95 0 0 1-2.523-2.41c.439-.155.877-.313 1.316-.507q.751-.273 1.534-.427a9.2 9.2 0 0 1 2.269-.116 7 7 0 0 1 1.753.427c.433.176.83.44 1.17.777.247.24.425.55.512.894.072.35-.073.7-.401 1.05"/></svg>