<svg width="24" height="24" viewBox="0 0 24 24" fill="none" xmlns="http://www.w3.org/2000/svg">
<g clip-path="url(#clip0_548_96)">
<path d="M12 0C5.3725 0 0 5.3725 0 12C0 18.6275 5.3725 24 12 24C18.6275 24 24 18.6275 24 12C24 5.3725 18.6275 0 12 0ZM2.3475 12C2.3475 6.6775 6.6775 2.3475 12 2.3475C14.19 2.3475 16.2125 3.0825 17.835 4.3175L4.3175 17.835C3.0825 16.2125 2.3475 14.19 2.3475 12ZM12 21.6525C9.81 21.6525 7.7875 20.9175 6.165 19.6825L19.6825 6.165C20.9175 7.7875 21.6525 9.81 21.6525 12C21.6525 17.3225 17.3225 21.6525 12 21.6525Z" fill="url(#paint0_linear_548_96)"/>
<path d="M13.0154 3.52016L12.1754 2.35266C12.1179 2.35266 12.0604 2.34766 12.0004 2.34766C11.9404 2.34766 11.8854 2.34766 11.8279 2.35016L10.9879 3.51766C10.5029 4.19016 6.25293 10.1902 6.25293 13.4977C6.25293 16.8052 8.83293 19.2477 12.0029 19.2477C15.1729 19.2477 17.7529 16.6677 17.7529 13.4977C17.7529 10.3277 13.5004 4.19266 13.0154 3.52016Z" fill="white"/>
<path d="M12 4.25C12 4.25 7.5 10.5 7.5 13.5C7.5 15.985 9.515 18 12 18C14.485 18 16.5 15.985 16.5 13.5C16.5 10.5 12 4.25 12 4.25ZM12.115 16.3175C12.06 16.6175 11.7975 16.83 11.5 16.83C11.4625 16.83 11.425 16.8275 11.385 16.82C9.785 16.525 8.6225 15.13 8.6225 13.5C8.6225 13.2375 8.665 12.9425 8.7525 12.595C8.8375 12.26 9.1775 12.06 9.5125 12.1425C9.8475 12.2275 10.05 12.5675 9.965 12.9025C9.905 13.1425 9.8725 13.345 9.8725 13.4975C9.8725 14.5225 10.6025 15.4025 11.61 15.5875C11.95 15.65 12.175 15.975 12.11 16.315L12.115 16.3175Z" fill="#7D96A4"/>
</g>
<defs>
<linearGradient id="paint0_linear_548_96" x1="12" y1="24" x2="12" y2="0" gradientUnits="userSpaceOnUse">
<stop stop-color="#83B943"/>
<stop offset="1" stop-color="#A3CD40"/>
</linearGradient>
<clipPath id="clip0_548_96">
<rect width="24" height="24" fill="white"/>
</clipPath>
</defs>
</svg>
