<svg width="24" height="21" viewBox="0 0 24 21" fill="none" xmlns="http://www.w3.org/2000/svg">
<g clip-path="url(#clip0_548_1875)">
<path d="M10.03 5.02344H4.5" stroke="#B5C6CF" stroke-width="0.9031" stroke-linecap="round" stroke-linejoin="round"/>
<path d="M13.4416 3.60218C14.2226 4.38687 14.2226 5.65909 13.4416 6.44377C12.6605 7.22845 11.3942 7.22845 10.6131 6.44377C9.83208 5.65909 9.83208 4.38687 10.6131 3.60218C11.3942 2.8175 12.6605 2.8175 13.4416 3.60218" stroke="#B5C6CF" stroke-width="0.9031" stroke-linecap="round" stroke-linejoin="round"/>
<path d="M19.5003 5.02344H14.0303" stroke="#B5C6CF" stroke-width="0.9031" stroke-linecap="round" stroke-linejoin="round"/>
<path d="M8.81357 13.2884C8.92757 13.4693 8.99257 13.6812 8.97257 13.8942C8.80557 15.6805 7.30957 17.079 5.48757 17.079C3.66657 17.079 2.17057 15.6815 2.00257 13.8952C1.98257 13.6822 2.04857 13.4662 2.16357 13.2854L5.48757 8.03711C5.48757 8.03711 8.10657 12.1712 8.81357 13.2884V13.2884Z" stroke="#B5C6CF" stroke-width="0.9031" stroke-linecap="round" stroke-linejoin="round"/>
<path d="M8.94004 13.5625H2.04004" stroke="#B5C6CF" stroke-width="0.9031" stroke-linecap="round" stroke-linejoin="round"/>
<path d="M21.8409 13.2884C21.9549 13.4693 22.0199 13.6812 21.9999 13.8942C21.8329 15.6805 20.3369 17.079 18.5149 17.079C16.6939 17.079 15.1979 15.6815 15.0299 13.8952C15.0099 13.6822 15.0759 13.4662 15.1909 13.2854L18.5149 8.03711C18.5149 8.03711 21.1329 12.1712 21.8409 13.2884Z" stroke="#B5C6CF" stroke-width="0.9031" stroke-linecap="round" stroke-linejoin="round"/>
<path d="M21.9705 13.5625H15.0605" stroke="#B5C6CF" stroke-width="0.9031" stroke-linecap="round" stroke-linejoin="round"/>
</g>
<defs>
<clipPath id="clip0_548_1875">
<rect width="24" height="20.093" fill="white"/>
</clipPath>
</defs>
</svg>
