<?xml version="1.0" encoding="utf-8"?><svg viewBox="0 0 48 48" xmlns="http://www.w3.org/2000/svg" xmlns:xlink="http://www.w3.org/1999/xlink"><style>:root>svg{display:none}:root>svg:target{display:block}</style><svg fill="none" viewBox="0 0 20 15" id="arrow-double-right" xmlns="http://www.w3.org/2000/svg"><path d="M5.833 3.125 10 7.5l-4.167 4.375m5-8.75L15 7.5l-4.167 4.375" stroke="#E76642" stroke-width="1.5" stroke-linecap="round" stroke-linejoin="round"/></svg><svg fill="none" viewBox="0 0 32 32" id="arrow-left" xmlns="http://www.w3.org/2000/svg"><path d="m20 8-8 8 8 8" stroke="#091922" stroke-width="1.5" stroke-linecap="round" stroke-linejoin="round" opacity=".8"/></svg><svg fill="none" viewBox="0 0 32 32" id="arrow-right" xmlns="http://www.w3.org/2000/svg"><path d="m12 8 8 8-8 8" stroke="#091922" stroke-width="1.5" stroke-linecap="round" stroke-linejoin="round" opacity=".8"/></svg><svg fill="none" viewBox="0 0 20 21" id="arrows-double-left" xmlns="http://www.w3.org/2000/svg"><path d="M14.167 6.364 10 10.531l4.167 4.167m-5-8.334L5 10.531l4.167 4.167" stroke="#E76642" stroke-width="1.5" stroke-linecap="round" stroke-linejoin="round"/></svg><svg fill="none" viewBox="0 0 24 24" id="calendar-time" xmlns="http://www.w3.org/2000/svg"><g clip-path="url(#ea)" stroke="#E76642" stroke-width="1.25" stroke-linecap="round" stroke-linejoin="round"><path d="M21 8H3m14.5 5v0a4.5 4.5 0 1 1-4.5 4.5v0a4.5 4.5 0 0 1 4.5-4.5s0 0 0 0"/><path d="M14.673 21H6v0a3 3 0 0 1-3-3v0V6v0a3 3 0 0 1 3-3h12v0a3 3 0 0 1 3 3v8.673m-3.28.617v2.39m-1.95 0h1.95M6.8 11.5a.05.05 0 1 1-.05-.05"/><path d="M6.749 11.45v0a.05.05 0 0 1 .05.05m3.501 0a.05.05 0 1 1-.05-.05M10.25 11.45v0a.05.05 0 0 1 .05.05v0m-3.5 3a.05.05 0 1 1-.05-.05"/><path d="M6.749 14.45v0a.05.05 0 0 1 .05.05m3.501 0a.05.05 0 1 1-.05-.05M10.25 14.45v0a.05.05 0 0 1 .05.05v0m3.5-3a.05.05 0 1 1-.05-.05"/><path d="M13.749 11.45v0a.05.05 0 0 1 .05.05v0m-6.999 6a.05.05 0 1 1-.05-.05"/><path d="M6.749 17.45v0a.05.05 0 0 1 .05.05m3.501 0a.05.05 0 1 1-.05-.05M10.25 17.45v0a.05.05 0 0 1 .05.05"/></g><defs><clipPath id="ea"><path fill="#fff" d="M0 0h24v24H0z"/></clipPath></defs></svg><svg fill="none" viewBox="0 0 22 19" id="download" xmlns="http://www.w3.org/2000/svg"><g clip-path="url(#fa)" stroke="#E76642" stroke-width="1.25" stroke-linecap="round" stroke-linejoin="round"><path d="M17.416 15a3.208 3.208 0 1 0 0-6.417H16.5c.134-.595.136-1.21.006-1.806a4.386 4.386 0 0 0-.763-1.67 4.916 4.916 0 0 0-1.414-1.282 5.467 5.467 0 0 0-1.852-.696 5.705 5.705 0 0 0-2.007-.005 5.474 5.474 0 0 0-1.857.686c-1.136.68-1.926 1.737-2.196 2.94a4.35 4.35 0 0 0-2.719.812 4.024 4.024 0 0 0-1.559 2.28 3.875 3.875 0 0 0 .312 2.708c.43.84 1.15 1.512 2.04 1.9M11 10.417v8.25m-2.75-2.75 2.75 2.75 2.75-2.75"/></g><defs><clipPath id="fa"><path fill="#fff" transform="translate(0 .5)" d="M0 0h22v18H0z"/></clipPath></defs></svg><svg fill="none" viewBox="0 0 24 24" id="location" xmlns="http://www.w3.org/2000/svg"><g clip-path="url(#ga)" stroke-width="1.25" stroke-linecap="round" stroke-linejoin="round"><path d="M17.493 5.276v0a7.77 7.77 0 0 1 0 10.988l-4.2 4.2v0a1.83 1.83 0 0 1-2.589 0l-4.2-4.2h0a7.77 7.77 0 0 1 0-10.988v0h0a7.77 7.77 0 0 1 10.99 0h0z" stroke="#091922"/><path d="M17.493 5.276v0a7.77 7.77 0 0 1 0 10.988l-4.2 4.2v0a1.83 1.83 0 0 1-2.589 0l-4.2-4.2h0a7.77 7.77 0 0 1 0-10.988v0h0a7.77 7.77 0 0 1 10.99 0h0z" stroke="#E76642"/><path d="M12 13.435a2.666 2.666 0 1 0 0-5.331 2.666 2.666 0 0 0 0 5.332z" stroke="#E76642"/></g><defs><clipPath id="ga"><path fill="#fff" d="M0 0h24v24H0z"/></clipPath></defs></svg><svg fill="none" viewBox="0 0 48 48" id="play" xmlns="http://www.w3.org/2000/svg"><g clip-path="url(#ha)"><path d="M24 .48C11.012.48.48 11.012.48 24 .48 36.99 11.012 47.52 24 47.52c12.99 0 23.52-10.53 23.52-23.52C47.52 11.012 36.99.48 24 .48zM34.816 25.2l-15.11 8.929c-.173.1-.365.153-.557.153a1.06 1.06 0 0 1-.557-.153 1.148 1.148 0 0 1-.557-.99V15.275c0-.408.211-.787.557-.989a1.087 1.087 0 0 1 1.118 0l15.11 8.933c.346.206.557.58.557.989a1.171 1.171 0 0 1-.561.994z" fill="red"/></g><defs><clipPath id="ha"><path fill="#fff" d="M0 0h48v48H0z"/></clipPath></defs></svg><svg fill="none" viewBox="0 0 22 22" id="print" xmlns="http://www.w3.org/2000/svg"><path d="M15.583 15.583h1.834a1.833 1.833 0 0 0 1.833-1.833v-3.667a1.833 1.833 0 0 0-1.833-1.833H4.583a1.833 1.833 0 0 0-1.833 1.833v3.667a1.834 1.834 0 0 0 1.833 1.833h1.834m9.167-7.333V4.583A1.833 1.833 0 0 0 13.75 2.75h-5.5a1.833 1.833 0 0 0-1.833 1.833V8.25" stroke="#E76642" stroke-width="1.25" stroke-linecap="round" stroke-linejoin="round"/><path d="M6.417 13.75a1.833 1.833 0 0 1 1.833-1.833h5.5a1.833 1.833 0 0 1 1.834 1.833v3.667a1.833 1.833 0 0 1-1.834 1.833h-5.5a1.833 1.833 0 0 1-1.833-1.833V13.75z" stroke="#E76642" stroke-width="1.25" stroke-linecap="round" stroke-linejoin="round"/></svg><svg fill="none" viewBox="0 0 24 24" id="save" xmlns="http://www.w3.org/2000/svg"><g clip-path="url(#ja)" stroke-width="1.458" stroke-linecap="round" stroke-linejoin="round"><path d="M12 16.528V2.917" stroke="#fff"/><path d="M21 16.528c0 2.148-1.791 3.89-4 3.89H7c-2.209 0-4-1.742-4-3.89" stroke="#F1F3F8"/><path d="m17 11.667-5.001 4.862-5-4.862" stroke="#F1F3F8"/></g><defs><clipPath id="ja"><path fill="#fff" d="M0 0h24v23.333H0z"/></clipPath></defs></svg><svg fill="none" viewBox="0 0 23 23" id="search-plus" xmlns="http://www.w3.org/2000/svg"><g clip-path="url(#ka)" stroke="#fff" stroke-width="1.5" stroke-linecap="round" stroke-linejoin="round"><path d="m17.92 17.92-2.24-2.24 2.24 2.24zM10.4 3.2h-.016c3.968-.016 7.2 3.216 7.2 7.184s-3.232 7.2-7.2 7.2c-3.984 0-7.2-3.232-7.216-7.2h-.002a7.19 7.19 0 0 1 7.184-7.216v-.002m2.21 7.234H8.224M10.4 8.224v4.32"/></g><defs><clipPath id="ka"><path fill="#fff" d="M0 0h22.4v22.4H0z"/></clipPath></defs></svg><svg fill="none" viewBox="0 0 24 24" id="type" xmlns="http://www.w3.org/2000/svg"><path d="M3 3.084v4.552-.09c0 1.274.525 2.402 1.339 3.132.398.357.661.839.661 1.374V19.5a1.5 1.5 0 0 0 3 0v-7.448c0-.535.263-1.017.661-1.374C9.475 9.948 10 8.82 10 7.546V3.084v4.462M6.5 8V3M20 4.053a1 1 0 0 0-1-1h-1a3 3 0 0 0-3 3v6a2.99 2.99 0 0 0 2 2.816V19.5a1.5 1.5 0 0 0 3 0V4.053z" stroke="#E76642" stroke-width="1.25" stroke-linecap="round" stroke-linejoin="round"/></svg><svg fill="none" viewBox="0 0 24 24" id="users" xmlns="http://www.w3.org/2000/svg"><path d="M15.215 10.429v0a3.335 3.335 0 0 0 3.214-3.312v0A3.167 3.167 0 0 0 15.215 4m-5.787 6.429v0a3.335 3.335 0 0 0 3.214-3.312v0A3.167 3.167 0 0 0 9.428 4v0a3.167 3.167 0 0 0-3.214 3.117h0a3.335 3.335 0 0 0 3.214 3.312h0zM16 20v-2a4 4 0 0 0-4-4H7v0a4 4 0 0 0-4 4v2m18 0v-3a3 3 0 0 0-3-3" stroke="#E76642" stroke-width="1.25" stroke-linecap="round" stroke-linejoin="round"/></svg><svg fill="none" viewBox="0 0 24 25" id="wallet-small" xmlns="http://www.w3.org/2000/svg"><path d="m17.5 6.984-2.365-3.153a2 2 0 0 0-2.71-.464L6.93 7.03m10.57 4.501H20a1 1 0 0 1 1 1v3a1 1 0 0 1-1 1h-2.5a2.5 2.5 0 0 1 0-5z" stroke="#E76642" stroke-width="1.167" stroke-linecap="round" stroke-linejoin="round"/><path d="M20 11.531v-2a2.5 2.5 0 0 0-2.5-2.5h-13a2.5 2.5 0 0 0-2.5 2.5v9a2.5 2.5 0 0 0 2.5 2.5h13a2.5 2.5 0 0 0 2.5-2.5v-2" stroke="#E76642" stroke-width="1.167" stroke-linecap="round" stroke-linejoin="round"/></svg></svg>