<?xml version="1.0" encoding="utf-8"?><svg viewBox="0 0 64 65" xmlns="http://www.w3.org/2000/svg" xmlns:xlink="http://www.w3.org/1999/xlink"><style>:root>svg{display:none}:root>svg:target{display:block}</style><svg fill="none" viewBox="0 0 32 33" id="badges" xmlns="http://www.w3.org/2000/svg"><g opacity=".5" clip-path="url(#aa)" stroke="#7D96A4" stroke-width="1.3" stroke-miterlimit="10" stroke-linecap="round" stroke-linejoin="round"><path d="m9.042 2.919-4.948 8.676a1.39 1.39 0 0 0-.052 1.3l8.41 17.677c.382.804 1.442 1.186 2.367.854l7.751-2.784 7.752-2.783c.925-.332 1.365-1.253.982-2.057L22.895 6.126c-.2-.42-.598-.744-1.093-.89l-10.554-3.11c-.86-.253-1.803.086-2.206.793z"/><path d="M14.55 6.95c-.448-.941-1.69-1.39-2.775-1-1.085.39-1.6 1.469-1.152 2.412.448.942 1.69 1.39 2.776 1 1.084-.389 1.6-1.469 1.151-2.411zm-10.047.08-3.488 3.2c-.33.303-.494.715-.45 1.131l1.898 17.52c.086.796.9 1.381 1.816 1.306l5.09-.416"/><path d="M12.262 6.764C10.025 3.55 4.272-.969 2.58.992 1.343 2.424 4.35 4.564 7.343 5.899m8.632 7.273 2.528 1.928a.832.832 0 0 0 .676.142l3.262-.716c.6-.132 1.114.392.87.886l-1.33 2.685a.577.577 0 0 0 .054.603l1.791 2.474c.33.455-.084 1.042-.7.992l-3.35-.269a.807.807 0 0 0-.644.23l-2.154 2.246c-.397.413-1.167.252-1.304-.274l-.74-2.85a.684.684 0 0 0-.451-.46L11.359 19.7c-.575-.2-.636-.886-.103-1.16l2.892-1.493a.645.645 0 0 0 .364-.515l.224-2.917c.041-.536.773-.799 1.239-.444z"/></g><defs><clipPath id="aa"><path fill="#fff" transform="translate(0 .031)" d="M0 0h32v32H0z"/></clipPath></defs></svg><svg fill="none" viewBox="0 0 36 24" id="delivery" xmlns="http://www.w3.org/2000/svg"><g clip-path="url(#ba)"><path d="M36 11.72a.559.559 0 0 0-.168-.4 2.793 2.793 0 0 0-1.44-1.572l-1.86-.696-1.132-4.29a2.794 2.794 0 0 0-2.7-2.018h-3.95V1.62c0-.619-.505-1.122-1.125-1.122h-22.5A1.128 1.128 0 0 0 0 1.622v15.707c0 .619.505 1.122 1.125 1.122h1.852c-.054.182-.096.37-.124.561H.563a.562.562 0 1 0 0 1.122h2.29a3.94 3.94 0 0 0 7.794 0h1.165c0 .928.758 1.683 1.688 1.683h3.375c.93 0 1.688-.755 1.688-1.683h6.79a3.94 3.94 0 0 0 7.794 0h2.29a.562.562 0 1 0 0-1.122h-2.29a3.892 3.892 0 0 0-.124-.56h1.852c.62 0 1.125-.504 1.125-1.123V12.28c0-.131-.01-.261-.027-.39a.556.556 0 0 0 .027-.17zm-1.125 3.365h-.563v-.56h.563v.56zm-.429-3.927H24.75v-1.121h7.21l2.007.75c.184.096.345.223.479.371zm-5.745-7.292c.748 0 1.395.478 1.614 1.19l1.018 3.859H24.75v-5.05h3.951zM3.375 17.329h-2.25v-2.805h17.438a.562.562 0 1 0 0-1.122H1.125V1.622h22.5v15.707h-13.5a.564.564 0 0 0-.134.017 3.938 3.938 0 0 0-6.481 0 .562.562 0 0 0-.135-.017zm3.375 5.05a2.812 2.812 0 0 1-2.813-2.806 2.812 2.812 0 0 1 2.813-2.805 2.812 2.812 0 0 1 2.812 2.805 2.812 2.812 0 0 1-2.812 2.805zm3.897-3.367a3.892 3.892 0 0 0-.124-.56h1.386a1.672 1.672 0 0 0-.097.56h-1.165zm6.79 1.122c0 .31-.252.561-.562.561H13.5a.562.562 0 0 1-.563-.56v-1.124c0-.31.253-.56.563-.56h3.375c.31 0 .563.25.563.56v1.122zm1.029-1.683h7.011c-.054.182-.096.37-.124.561h-6.79a1.67 1.67 0 0 0-.097-.56zm10.784 3.927a2.812 2.812 0 0 1-2.813-2.805 2.812 2.812 0 0 1 2.813-2.805 2.812 2.812 0 0 1 2.813 2.805 2.812 2.812 0 0 1-2.813 2.805zm3.375-5.049a.562.562 0 0 0-.135.017 3.938 3.938 0 0 0-6.48 0 .562.562 0 0 0-.135-.017H24.75V12.28h10.125v1.122h-.562c-.62 0-1.125.504-1.125 1.122v.561c0 .619.504 1.122 1.125 1.122h.562v1.122h-2.25z" fill="#E76642"/></g><defs><clipPath id="ba"><path fill="#fff" transform="translate(0 .5)" d="M0 0h36v23H0z"/></clipPath></defs></svg><svg fill="none" viewBox="0 0 32 33" id="document-calculator" xmlns="http://www.w3.org/2000/svg"><g opacity=".5" clip-path="url(#ca)" stroke="#7D96A4" stroke-width="1.5" stroke-linecap="round" stroke-linejoin="round"><path d="M30.769 15.21v13.95c0 .905-.735 1.64-1.641 1.64h-9.846a1.641 1.641 0 0 1-1.641-1.64V15.21c0-.906.734-1.64 1.64-1.64h9.847c.906 0 1.64.734 1.64 1.64zm0 0s0 0 0 0zm0 4.104H17.64M6.974 7.827h13.948M6.974 13.57h4.102m-4.102 5.744h4.102"/><path d="M12.718 25.878H4.513a3.282 3.282 0 0 1-3.283-3.282V4.544a3.282 3.282 0 0 1 3.283-3.282h19.692a3.282 3.282 0 0 1 3.282 3.282v4.923"/><path opacity=".7" d="M22.076 22.454a.43.43 0 1 0 0 .861.43.43 0 0 0 0-.861zm4.98.001a.43.43 0 1 0 0 .861.43.43 0 0 0 0-.861zm0 4.115a.43.43 0 1 0 0 .862.43.43 0 0 0 0-.861zm-5.096.108a.43.43 0 1 0 0 .861.43.43 0 0 0 0-.861z" fill="#7D96A4"/></g><defs><clipPath id="ca"><path fill="#fff" transform="translate(0 .031)" d="M0 0h32v32H0z"/></clipPath></defs></svg><svg fill="none" viewBox="0 0 34 34" id="drinks" xmlns="http://www.w3.org/2000/svg"><g opacity=".5" stroke="#7D96A4" stroke-width="1.3"><path d="M17.062 29.935c-7.156 0-12.954-5.776-12.954-12.903 0-7.128 5.798-12.904 12.954-12.904" stroke-miterlimit="10" stroke-linecap="round" stroke-linejoin="round"/><path d="M17.062 33.031c-8.87 0-16.062-7.164-16.062-16s7.192-16 16.062-16M8.771 11.87v10.323m4.146-13.936v17.548" stroke-miterlimit="10" stroke-linecap="round" stroke-linejoin="round"/><path d="M17.448 25.805c0 .209-.17.383-.386.383a.384.384 0 0 1-.387-.383c0-.209.171-.382.387-.382.215 0 .386.174.386.382z"/><path d="M19.135 33.03H31.57s-5.181-2.064-6.218-5.16c-1.036 3.096-6.217 5.16-6.217 5.16z" stroke-miterlimit="10" stroke-linecap="square" stroke-linejoin="round"/><path d="M25.352 21.16v6.71m5.182-26.839H20.17l-2.342 10.472c-.503 2.823.502 5.77 2.782 7.525a7.741 7.741 0 0 0 4.741 1.616 7.72 7.72 0 0 0 4.741-1.62c2.275-1.756 3.28-4.703 2.782-7.526l-2.34-10.467zm-8.291 11.355h10.363" stroke-miterlimit="10" stroke-linecap="round" stroke-linejoin="round"/></g></svg><svg fill="none" viewBox="0 0 36 36" id="equipment" xmlns="http://www.w3.org/2000/svg"><g clip-path="url(#ea)" stroke="#E76642" stroke-width="1.2" stroke-linecap="round" stroke-linejoin="round"><path d="m23.991 16.989-.014-5.949m-2.329-.017.015 5.95m4.641-5.933.158 5.933a4.336 4.336 0 0 1-1.146 2.841c-1.06 1.229-.918 4.702-.957 6.774v7.316C30.67 31.378 35.13 25.212 35.13 18 35.127 8.54 27.459.872 17.999.872 8.54.872.873 8.54.873 18c0 6.533 3.659 12.21 9.038 15.098V8.918c0-.266.24-.456.518-.456 4.55 0 4.639 9.618 4.643 14.267-.003 1.284-.421 2.104-1.143 2.889-.409.47-.926 1.49-.926 5.07v3.696a17.131 17.131 0 0 0 8.264.427v-8.225c-.038-2.073.102-5.545-.956-6.774a4.33 4.33 0 0 1-1.146-2.841l.156-5.934"/></g><defs><clipPath id="ea"><path fill="#fff" transform="translate(.5 .5)" d="M0 0h35v35H0z"/></clipPath></defs></svg><svg fill="none" viewBox="0 0 34 34" id="menu" xmlns="http://www.w3.org/2000/svg"><g opacity=".5" stroke="#7D96A4" stroke-width="1.3" stroke-miterlimit="10" stroke-linecap="round" stroke-linejoin="round"><path d="M10.807 17.548h6.71m-.001 2.063h-6.71m11.355.516c-.557.934-1.491 1.548-2.58 1.548h-7.742m0-6.193h7.742c1.089 0 2.023.614 2.58 1.549h10.84m-10.84 3.096H33m-10.839 0 .516-1.032m2.581 7.742-2.064 1.548h-6.71c-3.097 0-5.677-1.032-5.677-3.613H33"/><path d="M6.92 21.676a11.095 11.095 0 0 1-1.017-4.645c0-6.126 4.97-11.097 11.097-11.097 4.671 0 8.666 2.885 10.302 6.968"/><path d="M24.742 27.354h4.485A15.968 15.968 0 0 1 17 33.03c-8.836 0-16-7.164-16-16s7.164-16 16-16 16 7.164 16 16"/></g></svg><svg fill="none" viewBox="0 0 30 40" id="personal" xmlns="http://www.w3.org/2000/svg"><g clip-path="url(#ga)" stroke="#E76642" stroke-width="1.2" stroke-linecap="round" stroke-linejoin="round"><path d="M10.676 29.273h3.311s.783 3.95-3.311 3.95M.436 39.582V29.273"/><path d="M6.03 17.82c-3.17.72-5.455 3.378-5.594 6.505v4.948h10.24v10.309m18.306-21.764c-.095-3.419-3.01-6.164-6.592-6.164-3.583 0-6.497 2.744-6.593 6.164M5.491 7.623c-.504-1.306-1.812-5.28.921-5.28 0 0 1.27-4.203 8.736-.195 2.09 1.123.694 4.442.246 5.379"/><path d="M15.093 7.38a1.099 1.099 0 0 0-.378-.046 7.017 7.017 0 0 0-.544-1.607c-.78.268-1.921.26-3.106-.09-1.303-.384-2.324-1.08-2.758-1.793-.762.614-1.632 1.68-2.02 3.488a1.058 1.058 0 0 0-.378.046c-.7.218-1.025 1.112-.728 1.996.19.567.59.99 1.039 1.167.395 1.893 2.047 4.492 3.887 4.492h.79c1.84 0 3.493-2.599 3.887-4.492.447-.175.847-.6 1.038-1.167.297-.884-.027-1.778-.728-1.996l-.001.002zm-1.046 8.688-3.48 1.266-3.482-1.266v3.482l3.481-1.264 3.481 1.264v-3.482zm1.14 1.752h14.378M17.298 29.273c2.533 0 4.722-1.701 5.25-4.082l1.09-4.912 3.6-2.47m-9.94.011 2.539 2.02M4.732 22.438l.274 6.835m12.43-6.835-.576 14.36m5.515-25.143v-1.464"/></g><defs><clipPath id="ga"><path fill="#fff" d="M0 0h30v40H0z"/></clipPath></defs></svg><svg fill="none" viewBox="0 0 32 33" id="service" xmlns="http://www.w3.org/2000/svg"><g opacity=".5" clip-path="url(#ia)" stroke="#7D96A4" stroke-width="1.3" stroke-miterlimit="10" stroke-linecap="round" stroke-linejoin="round"><path d="M25.404 12.51a10.374 10.374 0 0 0-5.435-4.773m-5.196-5.832c0-.713.59-.998 1.316-.998.726 0 1.315.285 1.315.998 0 .713-.59 1.991-1.315 1.991-.726 0-1.316-1.278-1.316-1.991zm-2.128 14.103h18.642v1.225c0 .677-.56 1.226-1.249 1.226H2.14c-.689 0-1.248-.55-1.248-1.226v-1.225h6.703m17.035 2.451c-2.175 0-5.134 1.08-8.109 3.358-2.043 1.565-3.667 1.816-4.348.359-.638-1.363-.754-3.717-3.964-3.717-1.682 0-1.443 1.816-1.443 1.816.892.294 1.984.795 1.89 1.758-.224 2.293-.217 2.082-2.416 3.142"/><path d="M6.24 29.771c5.052 0 9.624-.982 10.762-2.412.744-.933 2.471-3.801 3.963-5.107 1.623-1.42 2.783-1.337 4.125-1.42 1.381-.086 1.5-2.375-.459-2.375h.671M2.02 31.363l4.22.04v-7.965l-4.22-.04v7.965zm27.596-15.355c-.63-6.792-6.444-12.112-13.527-12.112-7.084 0-12.898 5.322-13.528 12.112"/></g><defs><clipPath id="ia"><path fill="#fff" transform="translate(0 .031)" d="M0 0h32v32H0z"/></clipPath></defs></svg><svg fill="none" viewBox="0 0 38 38" id="service-color" xmlns="http://www.w3.org/2000/svg"><path d="M29.788 14.698a12.088 12.088 0 0 0-6.295-5.63m-6.016-6.882c0-.84.682-1.177 1.523-1.177.84 0 1.523.336 1.523 1.177 0 .84-.682 2.35-1.523 2.35-.84 0-1.523-1.51-1.523-2.35zm-2.465 16.64h21.59v1.446c0 .798-.649 1.446-1.447 1.446H2.845A1.446 1.446 0 0 1 1.4 20.272v-1.446h7.763" stroke="#E76642" stroke-width="1.2" stroke-linecap="round" stroke-linejoin="round"/><path d="M28.892 21.718c-2.519 0-5.945 1.274-9.39 3.962-2.367 1.847-4.248 2.143-5.037.423-.738-1.608-.872-4.385-4.59-4.385-1.947 0-1.67 2.143-1.67 2.143 1.031.347 2.296.938 2.187 2.073-.259 2.706-.251 2.457-2.797 3.708" stroke="#E76642" stroke-width="1.2" stroke-linecap="round" stroke-linejoin="round"/><path d="M7.595 35.064c5.85 0 11.146-1.158 12.464-2.845.86-1.102 2.861-4.485 4.589-6.026 1.88-1.676 3.223-1.577 4.777-1.676 1.6-.1 1.737-2.801-.531-2.801h.777M2.708 36.943l4.887.047v-9.397l-4.887-.048v9.398zm31.959-18.118c-.73-8.013-7.464-14.29-15.667-14.29S4.064 10.814 3.333 18.825" stroke="#E76642" stroke-width="1.2" stroke-linecap="round" stroke-linejoin="round"/></svg><svg fill="none" viewBox="0 0 32 32" id="wallet" xmlns="http://www.w3.org/2000/svg"><g opacity=".5" clip-path="url(#ja)" fill="#7D96A4"><path d="M30.474 18.743h-.479V14.43c0-.683-.34-1.288-.859-1.655v-.587c0-.852-.693-1.545-1.545-1.545h-.358l1.369-2.008a1.479 1.479 0 0 0-.39-2.052L18.93.257a1.466 1.466 0 0 0-1.107-.23 1.467 1.467 0 0 0-.945.619L8.865 12.403h-2.23l.538-5.445a.162.162 0 0 1 .102-.136 3.466 3.466 0 0 0 1.691-1.374.16.16 0 0 1 .152-.071l3.497.346a.456.456 0 0 0 .09-.908L9.206 4.47a1.067 1.067 0 0 0-1.01.489 2.552 2.552 0 0 1-1.244 1.01 1.065 1.065 0 0 0-.687.899l-.547 5.535h-.581l.85-8.612a.565.565 0 0 1 .618-.507l7.067.698a.456.456 0 0 0 .09-.908l-7.067-.698A1.479 1.479 0 0 0 5.08 3.701l-.686 6.942H3.227c-.852 0-1.545.693-1.545 1.545v.4A2.029 2.029 0 0 0 .5 14.43v15.543A2.03 2.03 0 0 0 2.527 32h25.441a2.03 2.03 0 0 0 2.027-2.027V25.66h.479c.565 0 1.025-.46 1.025-1.025v-4.867c0-.565-.46-1.025-1.025-1.025zm-2.883-7.188c.35 0 .633.284.633.633v.232a2.036 2.036 0 0 0-.256-.017h-1.934l.578-.848h.98zm-9.96-10.396a.561.561 0 0 1 .785-.149L27.7 7.337a.566.566 0 0 1 .15.785l-2.919 4.281h-.7l1.43-2.099c.232-.34.252-.774.05-1.13a2.547 2.547 0 0 1-.305-1.574 1.066 1.066 0 0 0-.462-1.023l-4.812-3.28a1.066 1.066 0 0 0-1.121-.054 2.549 2.549 0 0 1-1.576.29 1.08 1.08 0 0 0-1.034.46l-5.731 8.41h-.7L17.63 1.16zm.201 7.743a3.763 3.763 0 0 0-3.748 3.501h-2.312l5.382-7.896a.163.163 0 0 1 .154-.07 3.467 3.467 0 0 0 2.143-.396.16.16 0 0 1 .166.01l4.813 3.28a.16.16 0 0 1 .07.151 3.466 3.466 0 0 0 .416 2.14.162.162 0 0 1-.009.168l-1.78 2.613H21.58a3.763 3.763 0 0 0-3.749-3.5zm2.834 3.501h-5.668a2.85 2.85 0 0 1 2.834-2.589 2.85 2.85 0 0 1 2.834 2.59zm-18.072-.215c0-.35.284-.633.633-.633h1.078l-.084.848H2.594v-.215zM1.412 14.43c0-.615.5-1.115 1.115-1.115h25.441c.615 0 1.115.5 1.115 1.115v1.265H1.412V14.43zm27.671 15.543c0 .615-.5 1.115-1.115 1.115H2.527c-.615 0-1.115-.5-1.115-1.115v-1.265H3.87a.456.456 0 1 0 0-.912H1.41V16.607h27.672v2.136h-4.335c-1.366 0-2.55.797-3.111 1.95l-.006.01-.014.03a3.438 3.438 0 0 0-.328 1.469 3.462 3.462 0 0 0 3.459 3.458h4.335v2.136H6.79a.456.456 0 0 0 0 .912h22.293v1.265zm1.504-5.338c0 .062-.05.113-.113.113h-5.726a2.549 2.549 0 0 1-2.239-3.76 2.549 2.549 0 0 1 2.239-1.333h5.726c.062 0 .113.051.113.113v4.867z"/><path d="M24.855 20.351c-1.02 0-1.85.83-1.85 1.85s.83 1.85 1.85 1.85 1.85-.83 1.85-1.85-.83-1.85-1.85-1.85zm0 2.788a.94.94 0 0 1 0-1.876.94.94 0 0 1 0 1.876z"/></g><defs><clipPath id="ja"><path fill="#fff" d="M0 0h32v32H0z"/></clipPath></defs></svg><svg fill="none" viewBox="0 0 64 64" id="warehouse-1" xmlns="http://www.w3.org/2000/svg"><g opacity=".9" clip-path="url(#ka)" stroke="#B5C6CF" stroke-width="1.5" stroke-linecap="round" stroke-linejoin="round"><path d="M56 26.402v-3.2a8 8 0 0 0-4.235-7.06l-16-8.534a8 8 0 0 0-7.53 0l-16 8.535A8 8 0 0 0 8 23.2v27.466A5.333 5.333 0 0 0 13.333 56h16"/><path d="M32.005 34.667H21.333a2.667 2.667 0 0 0-2.666 2.667V56m26.666 0H40a2.667 2.667 0 0 1-2.667-2.667V48A2.666 2.666 0 0 1 40 45.333h5.333A2.667 2.667 0 0 1 48 48v5.333A2.666 2.666 0 0 1 45.333 56z"/><path d="M56 56h-5.333A2.667 2.667 0 0 1 48 53.333V48a2.666 2.666 0 0 1 2.667-2.667H56A2.667 2.667 0 0 1 58.667 48v5.333A2.667 2.667 0 0 1 56 56z"/><path d="M50.667 45.334h-5.334a2.667 2.667 0 0 1-2.666-2.667v-5.333a2.667 2.667 0 0 1 2.666-2.667h5.334a2.667 2.667 0 0 1 2.666 2.667v5.333a2.667 2.667 0 0 1-2.666 2.667zm-21.334-.001H18.667m8-21.333h10.666"/></g><defs><clipPath id="ka"><path fill="#fff" d="M0 0h64v64H0z"/></clipPath></defs></svg><svg fill="none" viewBox="0 0 64 65" id="warehouse-2" xmlns="http://www.w3.org/2000/svg"><g opacity=".9" clip-path="url(#la)" stroke="#B5C6CF" stroke-width="1.5" stroke-linecap="round" stroke-linejoin="round"><path d="M26.667 21.833h10.666M16 56.5H8V21.538v0c0-1.937 1.05-3.72 2.742-4.662l18.666-10.37h0a5.333 5.333 0 0 1 5.181 0l18.667 10.37v0A5.334 5.334 0 0 1 56 21.538V56.5h-8v-24H16v24zm16-16v7.365"/><path d="M26.285 56.5h11.43v0A2.285 2.285 0 0 0 40 54.215v-8.15 0a6.83 6.83 0 0 0-.552-2.693l-.635-1.485h0a2.285 2.285 0 0 0-2.101-1.387h-9.427v0c-.914 0-1.74.546-2.101 1.387l-.632 1.482v0A6.826 6.826 0 0 0 24 46.063v8.152a2.285 2.285 0 0 0 2.285 2.285h0z"/><path d="M40 49.643v0a1.776 1.776 0 0 0-1.773-1.779H25.779v0A1.776 1.776 0 0 0 24 49.638v.005"/></g><defs><clipPath id="la"><path fill="#fff" transform="translate(0 .5)" d="M0 0h64v64H0z"/></clipPath></defs></svg><svg fill="none" viewBox="0 0 64 65" id="warehouse-3" xmlns="http://www.w3.org/2000/svg"><g opacity=".9" clip-path="url(#ma)" stroke="#B5C6CF" stroke-width="1.5" stroke-linecap="round" stroke-linejoin="round"><path d="M28.379 34.99v-9.536a3.621 3.621 0 1 1 7.242 0v9.542c1.459 1.101 2.416 2.832 2.416 4.8A6.04 6.04 0 0 1 32 45.833a6.034 6.034 0 0 1-6.035-6.035c0-1.968.958-3.701 2.416-4.8M13.333 56.5A5.332 5.332 0 0 0 8 51.167M21.333 56.5c0-7.362-5.97-13.333-13.333-13.333"/><path d="M32 56.5h16a8 8 0 0 0 8-8V28.947c0-2.47-1.139-4.8-3.088-6.315l-16-12.445a7.998 7.998 0 0 0-9.824 0l-16 12.445A7.995 7.995 0 0 0 8 28.946v3.555"/></g><defs><clipPath id="ma"><path fill="#fff" transform="translate(0 .5)" d="M0 0h64v64H0z"/></clipPath></defs></svg></svg>