<?xml version="1.0" encoding="utf-8"?><svg viewBox="0 0 26 26" xmlns="http://www.w3.org/2000/svg" xmlns:xlink="http://www.w3.org/1999/xlink"><style>:root>svg{display:none}:root>svg:target{display:block}</style><svg fill="none" viewBox="0 0 24 24" id="instagram" xmlns="http://www.w3.org/2000/svg"><path d="M12.006.182C7.07.182 5.628.187 5.347.21c-1.012.084-1.643.244-2.33.585a4.737 4.737 0 0 0-1.357.995C.91 2.568.455 3.526.29 4.665c-.08.552-.103.665-.107 3.488-.002.941 0 2.18 0 3.841 0 4.931.005 6.373.029 6.653.082.985.236 1.605.563 2.284a4.98 4.98 0 0 0 3.228 2.636c.487.125 1.025.195 1.716.227.293.013 3.276.022 6.261.022 2.986 0 5.971-.004 6.257-.018.8-.038 1.264-.1 1.778-.233a4.95 4.95 0 0 0 3.227-2.642c.32-.661.484-1.305.557-2.24.016-.203.023-3.45.023-6.692 0-3.243-.007-6.484-.023-6.687-.075-.95-.238-1.587-.569-2.262a4.684 4.684 0 0 0-1.012-1.386C21.436.909 20.48.454 19.34.29c-.552-.08-.662-.103-3.487-.108h-3.847z" fill="url(#aa)"/><path d="M12.006.182C7.07.182 5.628.187 5.347.21c-1.012.084-1.643.244-2.33.585a4.737 4.737 0 0 0-1.357.995C.91 2.568.455 3.526.29 4.665c-.08.552-.103.665-.107 3.488-.002.941 0 2.18 0 3.841 0 4.931.005 6.373.029 6.653.082.985.236 1.605.563 2.284a4.98 4.98 0 0 0 3.228 2.636c.487.125 1.025.195 1.716.227.293.013 3.276.022 6.261.022 2.986 0 5.971-.004 6.257-.018.8-.038 1.264-.1 1.778-.233a4.95 4.95 0 0 0 3.227-2.642c.32-.661.484-1.305.557-2.24.016-.203.023-3.45.023-6.692 0-3.243-.007-6.484-.023-6.687-.075-.95-.238-1.587-.569-2.262a4.684 4.684 0 0 0-1.012-1.386C21.436.909 20.48.454 19.34.29c-.552-.08-.662-.103-3.487-.108h-3.847z" fill="url(#ab)"/><path d="M12 3.273c-2.37 0-2.667.01-3.598.053-.93.043-1.563.19-2.118.406a4.273 4.273 0 0 0-1.546 1.006A4.284 4.284 0 0 0 3.73 6.284c-.216.555-.363 1.19-.405 2.118-.042.93-.053 1.229-.053 3.599s.011 2.666.053 3.597c.043.93.19 1.564.406 2.118.223.575.52 1.061 1.006 1.546a4.27 4.27 0 0 0 1.546 1.008c.555.216 1.19.363 2.118.405.93.043 1.228.053 3.598.053s2.667-.01 3.598-.053c.929-.042 1.564-.19 2.119-.405a4.27 4.27 0 0 0 1.545-1.008 4.284 4.284 0 0 0 1.007-1.545c.215-.555.362-1.19.406-2.118.041-.931.052-1.228.052-3.598s-.01-2.668-.052-3.599c-.044-.929-.191-1.563-.406-2.118a4.283 4.283 0 0 0-1.007-1.546 4.266 4.266 0 0 0-1.546-1.006c-.556-.216-1.19-.363-2.12-.406-.93-.042-1.227-.053-3.598-.053H12zm-.783 1.573H12c2.33 0 2.607.009 3.527.05.85.04 1.312.181 1.62.3.407.16.698.348 1.003.654.305.305.494.596.653 1.003.12.308.262.77.3 1.62.042.92.051 1.197.051 3.526 0 2.329-.009 2.605-.05 3.525-.04.851-.182 1.313-.301 1.62a2.699 2.699 0 0 1-.653 1.003 2.697 2.697 0 0 1-1.003.652c-.307.12-.77.262-1.62.301-.92.042-1.197.051-3.527.051s-2.606-.009-3.526-.05c-.851-.04-1.313-.182-1.62-.302a2.703 2.703 0 0 1-1.004-.652 2.704 2.704 0 0 1-.653-1.004c-.12-.307-.262-.769-.301-1.62-.042-.92-.05-1.196-.05-3.527 0-2.33.008-2.605.05-3.525.039-.85.181-1.313.3-1.62a2.71 2.71 0 0 1 .654-1.004 2.708 2.708 0 0 1 1.003-.653c.308-.12.77-.262 1.62-.3.806-.037 1.118-.048 2.744-.05v.002zm5.442 1.45a1.047 1.047 0 1 0 0 2.094 1.047 1.047 0 0 0 0-2.095zM12 7.518a4.482 4.482 0 1 0 0 8.964 4.482 4.482 0 0 0 0-8.964zm0 1.573a2.91 2.91 0 1 1 0 5.818 2.91 2.91 0 0 1 0-5.818z" fill="#fff"/><defs><radialGradient id="aa" cx="0" cy="0" r="1" gradientUnits="userSpaceOnUse" gradientTransform="matrix(0 -23.4234 21.7909 0 6.461 25.636)"><stop stop-color="#FD5"/><stop offset=".1" stop-color="#FD5"/><stop offset=".5" stop-color="#FF543E"/><stop offset="1" stop-color="#C837AB"/></radialGradient><radialGradient id="ab" cx="0" cy="0" r="1" gradientUnits="userSpaceOnUse" gradientTransform="rotate(78.678 -3.038 -1.363) scale(10.4705 43.1693)"><stop stop-color="#3771C8"/><stop offset=".128" stop-color="#3771C8"/><stop offset="1" stop-color="#60F" stop-opacity="0"/></radialGradient></defs></svg><svg fill="none" viewBox="0 0 25 26" id="telegram" xmlns="http://www.w3.org/2000/svg"><g clip-path="url(#ba)"><path d="M22 13a9 9 0 1 1-18 0 9 9 0 0 1 18 0z" fill="#fff"/><path d="M12.5.406C5.596.406 0 6.045 0 13c0 6.955 5.596 12.594 12.5 12.594S25 19.955 25 13C25 6.045 19.404.406 12.5.406zm5.794 8.565c-.188 1.991-1.002 6.824-1.416 9.054-.176.944-.52 1.26-.855 1.291-.725.068-1.277-.483-1.98-.947-1.1-.727-1.721-1.18-2.79-1.888-1.233-.82-.434-1.27.27-2.006.184-.193 3.382-3.123 3.444-3.39.008-.033.015-.157-.058-.222-.073-.065-.181-.043-.259-.025-.11.025-1.868 1.195-5.272 3.51-.5.346-.951.514-1.356.505-.446-.01-1.305-.254-1.943-.463-.783-.257-1.405-.392-1.35-.827.027-.227.337-.46.93-.696 3.643-1.6 6.073-2.654 7.289-3.164 3.471-1.454 4.192-1.707 4.663-1.716.103-.001.334.024.484.147a.53.53 0 0 1 .178.34c.025.165.032.331.021.497z" fill="#08C"/></g><defs><clipPath id="ba"><path fill="#fff" d="M0 0h25v26H0z"/></clipPath></defs></svg><svg fill="none" viewBox="0 0 24 24" id="vk" xmlns="http://www.w3.org/2000/svg"><path d="M3.244 23.063a2.222 2.222 0 0 1-1.632-.675 2.222 2.222 0 0 1-.675-1.632V3.244c0-.638.226-1.182.675-1.632.45-.45.994-.675 1.632-.675h17.512c.638 0 1.181.226 1.631.675.45.45.675.994.675 1.632v17.512c0 .638-.225 1.181-.675 1.631a2.22 2.22 0 0 1-1.63.675H3.243zm13.518-6.329c.066 0 .113 0 .132-.009l2.006-.028c.038 0 .094-.01.169-.019.075-.01.187-.056.328-.122a.65.65 0 0 0 .31-.281.498.498 0 0 0 .065-.262c0-.15-.056-.32-.169-.507-.253-.469-.778-1.069-1.566-1.8a6.089 6.089 0 0 1-.562-.562.54.54 0 0 1-.15-.357c0-.121.047-.253.14-.403.094-.15.282-.393.554-.74l.515-.685c.825-1.096 1.238-1.865 1.238-2.306a.606.606 0 0 0-.028-.187c-.085-.244-.347-.357-.778-.357-.122 0-.197 0-.216.01l-2.316.01a.588.588 0 0 0-.328.084c-.122.065-.206.178-.281.328-.281.703-.553 1.284-.834 1.753-.16.272-.31.506-.45.712a6.736 6.736 0 0 1-.347.478c-.094.113-.178.197-.253.272-.075.066-.132.122-.179.14a.175.175 0 0 1-.103.038c-.14-.093-.215-.356-.215-.796v-.3l.01-.282c0-.262.008-.6.027-.993.01-.263.01-.45.01-.563 0-.347-.047-.619-.132-.797-.084-.178-.271-.31-.543-.375a5.588 5.588 0 0 0-1.107-.112h-.318c-.807 0-1.35.065-1.641.215-.131.066-.244.15-.347.272-.103.122-.14.235-.122.347l.047.094.094.056.047.01c.253.027.44.121.553.262.122.169.187.478.187.928.01.206.02.403.02.6 0 .384-.029.713-.076.984-.047.263-.122.422-.225.47-.234 0-.675-.563-1.331-1.679A14.625 14.625 0 0 1 7.8 8.606a.738.738 0 0 0-.244-.328.93.93 0 0 0-.45-.178l-2.165.019c-.272 0-.47.065-.582.215a.418.418 0 0 0-.093.291.85.85 0 0 0 .056.3c.047.122.112.272.197.46.084.178.253.543.525 1.078.262.534.534 1.04.806 1.518s.6.994.984 1.556a10.6 10.6 0 0 0 1.125 1.407c.3.31.62.581.966.815.347.235.656.404.928.525.281.122.563.207.853.282.29.065.516.112.675.13.16.02.31.02.45.02h.938a.838.838 0 0 0 .525-.244c.122-.122.178-.3.178-.516 0-.065 0-.14.01-.225.009-.084.018-.178.037-.3.018-.112.047-.215.075-.31a.836.836 0 0 1 .14-.252.354.354 0 0 1 .197-.14c.075 0 .169.046.282.13.112.085.206.178.29.263.075.084.197.216.338.384.393.45.693.74.9.881.356.235.693.347 1.021.347z" fill="#4C75A3"/></svg><svg fill="none" viewBox="0 0 26 26" id="watsapp" xmlns="http://www.w3.org/2000/svg"><path d="M26 13c0 7.18-5.82 13-13 13S0 20.18 0 13 5.82 0 13 0s13 5.82 13 13z" fill="#128C7E"/><path d="M18.604 7.414a7.933 7.933 0 0 0-5.608-2.289c-4.371 0-7.928 3.502-7.928 7.805 0 1.374.364 2.717 1.057 3.902L5 20.875l4.204-1.086a8.004 8.004 0 0 0 3.789.949h.003c4.368 0 8.004-3.502 8.004-7.805 0-2.085-.9-4.043-2.396-5.52zm-5.608 12.009a6.657 6.657 0 0 1-3.357-.903l-.239-.141-2.493.643.664-2.394-.157-.246a6.391 6.391 0 0 1-1.007-3.452c0-3.576 2.957-6.487 6.593-6.487 1.76 0 3.414.675 4.657 1.902 1.243 1.227 2.007 2.855 2.004 4.588 0 3.58-3.032 6.49-6.665 6.49zm3.615-4.858c-.197-.099-1.172-.57-1.354-.633-.182-.067-.314-.099-.446.098s-.511.633-.629.767c-.114.13-.232.147-.428.049-1.165-.573-1.929-1.023-2.697-2.32-.203-.345.204-.32.582-1.066.065-.13.032-.242-.018-.34-.05-.1-.446-1.06-.61-1.45-.161-.379-.325-.326-.447-.333-.114-.007-.246-.007-.378-.007a.74.74 0 0 0-.529.242c-.182.197-.693.668-.693 1.628 0 .96.711 1.888.807 2.018.1.13 1.397 2.099 3.386 2.946 1.257.534 1.75.58 2.379.489.382-.056 1.171-.471 1.335-.928.165-.457.165-.848.115-.928-.047-.088-.179-.138-.375-.232z" fill="#fff"/></svg><svg fill="none" viewBox="0 0 24 24" id="youtube" xmlns="http://www.w3.org/2000/svg"><path d="M7.378 3.807c-2.194.075-3.544.187-4.031.328-1.106.328-1.79 1.218-2.081 2.71-.375 1.893-.432 7.068-.113 9.684.206 1.659.76 2.68 1.706 3.14.91.45 3.028.59 9.103.59 4.116 0 7.088-.084 8.185-.252 1.594-.254 2.447-1.341 2.71-3.479.318-2.615.262-7.79-.113-9.684-.29-1.481-.938-2.344-2.044-2.7-1.04-.337-8.044-.516-13.322-.337zm5.447 6.196 3.281 2.016c0 .028-1.472.938-3.281 2.016l-3.45 2.08-.169.104v-8.4l.169.103 3.45 2.081z" fill="red"/></svg></svg>