<svg width="55" height="13" viewBox="0 0 55 13" fill="none" xmlns="http://www.w3.org/2000/svg">
<g clip-path="url(#clip0_548_2403)">
<path d="M6.4914 0.130183C4.12452 0.339753 2.18496 1.4205 1.10509 2.72155C-0.407152 4.67348 -0.30936 7.60925 1.29851 9.24539C2.04885 10.0089 3.23048 10.4477 4.52147 10.3433C6.13512 10.24 7.32073 9.48286 7.86283 8.18002C8.08011 7.52842 8.08011 7.52843 8.08336 6.54996C8.08661 5.57149 8.08698 5.46277 7.76613 4.9181C7.33953 3.82948 6.48128 3.17431 5.5133 3.17109C4.33022 3.16716 3.89676 4.1442 4.9712 4.47393C5.18595 4.58336 5.40141 4.47536 5.83199 4.36807L6.47766 4.2615L6.69204 4.47965C6.79924 4.58873 7.01326 4.9156 7.12009 5.13339C7.33375 5.56898 7.33338 5.6777 7.33049 6.54745C7.3276 7.4172 7.32724 7.52592 7.11069 7.96008C6.56931 9.04548 5.27651 9.6935 3.77113 9.57978C3.23337 9.57799 2.91107 9.4682 2.58878 9.35841C1.40751 8.81088 0.766529 7.50411 0.771951 5.87333C0.776289 4.5687 1.20975 3.59166 2.18062 2.72513C2.72019 2.18332 2.93602 1.9666 3.58242 1.64259C4.7673 1.10293 5.84355 0.889068 7.67231 0.786429C9.93091 0.793938 11.8658 1.12653 14.6585 2.22302C15.0884 2.33317 15.4103 2.55168 15.5179 2.55203C15.5179 2.55203 15.7333 2.44403 15.8412 2.33567L16.1646 2.1193L15.0906 1.68085C12.4053 0.584726 10.6856 0.252848 8.64245 0.137335C7.78239 0.025755 6.81442 0.0225366 6.4914 0.130183Z" fill="#7D96A4"/>
<path d="M38.649 0.454537C38.003 0.669829 37.6796 0.886193 37.14 1.428C36.6005 1.9698 36.4911 2.51304 36.4879 3.49151C36.485 4.36126 36.6968 5.34044 37.1249 5.99419C37.2317 6.21198 37.3389 6.32106 37.3389 6.32106L36.0504 5.66445C32.7224 3.80515 29.716 2.27307 27.7822 1.61433C24.5593 0.51641 21.2255 0.396606 18.4262 1.25706C16.3806 1.90258 14.655 3.3102 13.7888 5.04684C13.3561 5.80644 13.2467 6.34967 13.351 7.3285C13.3485 8.08953 13.3478 8.30697 13.5611 8.85128C14.3078 10.702 15.9171 11.9033 17.8531 11.9097C18.7135 11.9126 19.2516 11.8056 20.1135 11.3736C21.1908 10.8336 22.0541 9.96671 22.1635 9.42348C22.1653 8.87988 22.1656 8.77117 21.8441 8.44394C21.6297 8.22578 21.5225 8.11671 21.3074 8.11599C20.6621 8.11385 20.3376 8.65637 20.4419 9.63519C20.548 10.0704 20.4401 10.1788 19.7937 10.5028C19.1473 10.8268 18.5013 11.0421 17.6412 10.9305C16.9959 10.9284 16.7811 10.8189 16.2441 10.5997C14.6333 9.83332 13.8866 7.9826 14.3223 6.35325C14.8665 4.3981 16.8083 2.66504 18.9608 2.23731C19.714 2.1311 21.5427 2.02846 22.51 2.24911C25.3046 2.80201 28.0973 3.89849 34.7544 7.29094C39.0492 9.47962 40.4456 10.0279 42.7024 10.579C44.9592 11.1301 47.325 11.2467 48.939 11.0346C51.5221 10.4996 53.3555 8.98359 53.9005 6.811C54.1185 5.94197 54.015 4.7457 53.802 4.09268C53.0542 2.56811 50.9057 1.79993 48.86 2.44545C47.891 2.76838 47.2438 3.30983 47.2417 3.96214C47.2391 4.72318 48.3143 4.83547 48.8542 4.18495C48.9622 4.07659 49.178 3.85986 49.1787 3.64243C49.3953 3.20827 49.5032 3.0999 49.5035 2.99119C49.719 2.88318 50.9021 2.88712 51.4391 3.10634C52.0837 3.32592 52.5128 3.65351 52.8333 4.3069C53.047 4.74249 53.0466 4.8512 53.0437 5.72095C53.0408 6.5907 53.0405 6.69942 52.7157 7.35066C52.066 8.65314 50.8797 9.62768 49.1574 10.0568C48.1887 10.271 45.9301 10.2635 44.6402 10.0418C41.0935 9.26898 38.0889 7.19331 37.3439 4.79899C37.1314 4.03725 37.1353 2.84134 37.3519 2.40718C37.6764 1.86466 38.2159 1.32286 38.7541 1.21593C39.1846 1.10864 40.4756 1.00421 40.6904 1.11364C40.7886 1.30029 40.8957 1.48206 41.0112 1.65831C41.2245 2.20262 41.4389 2.42077 41.8691 2.4222C42.4069 2.42399 42.5162 1.88075 42.3029 1.33645C41.7681 0.464908 40.0487 0.024311 38.649 0.454537Z" fill="#7D96A4"/>
<path d="M17.453 2.99333C17.2376 3.10134 17.1297 3.2097 17.1297 3.2097C17.0217 3.31806 21.3173 5.2893 23.8953 6.27635L27.1179 7.48299C28.1924 7.81272 29.1593 8.14209 29.1589 8.25081C29.2665 8.25117 29.3737 8.36025 29.4805 8.57804C29.8013 9.12271 30.7693 9.12593 30.7711 8.58233C30.8801 8.14781 30.3434 7.81987 28.5169 7.2702L19.8163 3.87095L17.7761 2.88569C17.7764 2.77697 17.6685 2.88533 17.453 2.99333ZM26.1558 5.74027C26.1558 5.74027 26.4781 5.85006 26.9075 6.06893C27.5521 6.28851 27.6597 6.28887 29.8104 6.40474L31.9614 6.41189C31.9614 6.41189 31.7467 6.30246 31.4248 6.08395L30.8877 5.86472L28.5216 5.85685C27.2316 5.63512 26.1561 5.63155 26.1558 5.74027Z" fill="#7D96A4"/>
</g>
<defs>
<clipPath id="clip0_548_2403">
<rect width="54.3144" height="11.8504" fill="white" transform="translate(0.0390625) rotate(0.190502)"/>
</clipPath>
</defs>
</svg>
