<svg width="76" height="24" viewBox="0 0 76 24" fill="none" xmlns="http://www.w3.org/2000/svg">
<g clip-path="url(#clip0_408_1448)">
<path d="M37.169 1.3286C35.2092 2.74289 34.4506 5.78575 35.3989 8.48576C35.8203 9.75004 36.8107 11.2286 37.6958 11.8929L38.2015 12.3L39.3184 11.1C42.0367 8.12147 41.9314 3.30003 39.0866 1.3286C38.2647 0.728601 37.9697 0.750031 37.169 1.3286ZM39.0655 1.73575C39.3605 1.97146 39.8662 2.63575 40.2034 3.17146C40.7091 4.05004 40.7724 4.39289 40.7724 6.00004C40.7724 7.5429 40.6881 7.9929 40.2034 9.00004C39.8873 9.6429 39.2973 10.5215 38.8758 10.9286L38.1383 11.6572L37.4008 10.9286C36.9793 10.5215 36.3893 9.6429 36.0732 9.00004C35.5885 7.9929 35.5042 7.5429 35.5042 6.00004C35.5042 4.39289 35.5674 4.05004 36.0732 3.17146C36.7264 2.0786 37.5693 1.28575 38.1383 1.28575C38.349 1.28575 38.7494 1.4786 39.0655 1.73575Z" fill="#E3ECF1"/>
<path d="M7.35124 7.47859C4.97001 7.95002 2.52557 9.9643 1.40871 12.3857C0.776521 13.7143 0.734375 13.9929 0.734375 16.0714C0.734375 18.0429 0.797593 18.4714 1.28227 19.5C2.04089 21.15 2.77844 21.9643 4.16925 22.65C5.20181 23.1643 5.62327 23.25 7.16159 23.25C9.41638 23.25 10.6175 22.8 11.7555 21.5571C13.1673 19.9929 13.4202 18.1714 12.5141 16.3072C11.7555 14.7857 10.7018 14.0786 8.97385 13.9714C7.94128 13.9072 7.49875 13.9929 6.74013 14.4C5.62327 14.9786 4.97001 15.9857 5.18074 16.8214L5.32825 17.3786L5.91829 16.65C6.67691 15.7072 8.19416 15.3 9.54282 15.6643C11.8608 16.3072 12.7459 19.4571 11.1022 21.3429C10.0696 22.5643 8.99492 23.0143 7.14051 23.0143C5.72864 23.0357 5.43362 22.95 4.50641 22.3929C2.58878 21.1714 1.53514 18.5143 1.7248 15.3857C2.01982 10.9286 6.04473 7.67145 10.3857 8.37859C13.062 8.82859 15.2325 9.90001 19.3628 12.8357C23.7248 15.9429 26.7172 17.55 30.5524 18.8143C36.221 20.7 40.0773 20.7 45.7249 18.8143C49.5812 17.5286 52.5735 15.9214 56.9145 12.8357C61.0448 9.90001 63.2153 8.82859 65.8916 8.37859C70.2326 7.67145 74.2575 10.9286 74.5525 15.3857C74.7421 18.5143 73.6885 21.1714 71.7709 22.3929C70.8437 22.95 70.5487 23.0357 69.1368 23.0143C67.2824 23.0143 66.2077 22.5643 65.1751 21.3429C63.5314 19.4571 64.4165 16.3072 66.7345 15.6643C68.0831 15.3 69.6004 15.7072 70.359 16.65L70.949 17.3786L71.0965 16.8214C71.3073 15.9857 70.654 14.9786 69.5372 14.4C68.7785 13.9929 68.336 13.9072 67.3034 13.9714C65.5755 14.0786 64.5218 14.7857 63.7632 16.3072C62.8571 18.1714 63.11 19.9929 64.5218 21.5571C65.6598 22.8 66.8609 23.25 69.1157 23.25C72.0659 23.25 73.7728 22.1571 74.995 19.5C75.4797 18.4714 75.5429 18.0429 75.5429 16.0714C75.5429 13.9929 75.5008 13.7143 74.8686 12.3857C74.0257 10.5429 72.5506 9.04287 70.7805 8.18573C67.0716 6.38573 62.8571 7.47859 57.1674 11.7214C51.3302 16.0714 46.8839 18.2571 41.6157 19.3929C37.359 20.2929 32.6597 19.4357 27.0754 16.7357C24.2306 15.3429 22.6923 14.3786 19.1099 11.7214C14.3474 8.18573 10.6175 6.83573 7.35124 7.47859Z" fill="#E3ECF1"/>
<path d="M25.5155 8.37865C25.0098 8.48579 24.5673 8.59294 24.5251 8.63579C24.483 8.67865 24.9466 9.06436 25.5788 9.51436C26.9064 10.4358 28.2129 11.8286 30.0884 14.2929C32.3432 17.2501 34.7033 18.4929 38.1382 18.4929C41.7206 18.4929 43.87 17.2929 46.5463 13.8429C48.3585 11.4858 49.5597 10.2644 50.9927 9.30008C51.8566 8.72151 51.8566 8.70008 51.372 8.50722C50.529 8.18579 47.5578 8.07865 46.2723 8.33579C44.6286 8.63579 43.6593 9.15008 41.6152 10.7358C40.688 11.4429 39.529 12.2358 39.0443 12.4929L38.1382 12.9429L37.2531 12.4929C36.7474 12.2358 35.5884 11.4429 34.6612 10.7358C33.734 10.0072 32.596 9.23579 32.1324 9.00008C30.5098 8.20722 27.7071 7.92865 25.5155 8.37865ZM28.9294 8.57151C30.7627 8.87151 32.1324 9.6215 34.2186 11.4429C35.2512 12.3644 36.5577 13.3286 37.1056 13.6286L38.1382 14.1429L39.1708 13.6286C39.7187 13.3286 41.0252 12.3644 42.0578 11.4429C44.144 9.6215 45.5137 8.87151 47.347 8.55008C48.4428 8.37865 50.6344 8.46436 51.0559 8.72151C51.1612 8.78579 50.7398 9.17151 50.1076 9.60008C49.4965 10.0072 47.8106 11.5929 46.3566 13.0929C44.9026 14.5715 43.3432 16.0072 42.8796 16.2429C39.8662 17.7858 36.4102 17.7858 33.3968 16.2429C32.9332 16.0072 31.3738 14.5715 29.9198 13.0929C28.4657 11.5929 26.7799 10.0072 26.1477 9.57865C24.9677 8.78579 24.9677 8.67865 26.232 8.50722C27.391 8.35722 27.7071 8.35722 28.9294 8.57151Z" fill="#E3ECF1"/>
<path d="M19.0041 17.4001C17.9083 17.8073 16.0117 19.393 16.0117 19.8858C16.0117 20.0144 16.2435 20.4001 16.5175 20.7215C17.0021 21.3001 17.1075 21.3215 18.8987 21.3001C20.4792 21.3001 21.1535 21.1501 23.4926 20.4001C25.0098 19.9073 26.7589 19.4358 27.3911 19.3716C29.2455 19.1573 29.3087 18.9858 27.7914 18.2573C24.9045 16.8644 21.2589 16.5002 19.0041 17.4001ZM26.7589 18.3216L27.9179 18.7073L26.232 18.9644C25.3048 19.1144 23.5558 19.4787 22.3336 19.8215C19.9945 20.4215 17.8451 20.593 17.4447 20.1858C16.9811 19.7144 18.2665 18.7073 20.1209 18.0644C21.2799 17.6787 25.2416 17.8287 26.7589 18.3216Z" fill="#E3ECF1"/>
<path d="M50.8665 17.3358C50.15 17.5501 49.0121 17.9787 48.3588 18.3215C46.9891 18.9858 47.0734 19.1572 48.8857 19.3715C49.5178 19.4358 51.2879 19.9072 52.7841 20.4001C55.1232 21.1501 55.7975 21.3001 57.3779 21.3001C59.1691 21.3215 59.2745 21.3001 59.7591 20.7215C60.0331 20.4001 60.2649 20.0144 60.2649 19.8858C60.2649 19.3715 58.3684 17.8072 57.2304 17.3787C55.7132 16.8001 52.763 16.7787 50.8665 17.3358ZM57.0408 18.4072C58.3473 19.0072 59.1902 19.8215 58.832 20.1858C58.4105 20.6144 56.2611 20.4215 53.6059 19.7358C52.2151 19.3715 50.4661 19.0072 49.7496 18.943C48.8435 18.8358 48.5274 18.7287 48.7381 18.6001C50.3607 17.6787 55.1653 17.5715 57.0408 18.4072Z" fill="#E3ECF1"/>
</g>
<defs>
<clipPath id="clip0_408_1448">
<rect width="76" height="24" fill="white"/>
</clipPath>
</defs>
</svg>
