<svg width="24" height="24" viewBox="0 0 24 24" fill="none" xmlns="http://www.w3.org/2000/svg">
<g clip-path="url(#clip0_548_91)">
<path d="M12 0C5.3725 0 0 5.3725 0 12C0 18.6275 5.3725 24 12 24C18.6275 24 24 18.6275 24 12C24 5.3725 18.6275 0 12 0ZM2.3475 12C2.3475 6.6775 6.6775 2.3475 12 2.3475C14.19 2.3475 16.2125 3.0825 17.835 4.3175L4.3175 17.835C3.0825 16.2125 2.3475 14.19 2.3475 12ZM12 21.6525C9.81 21.6525 7.7875 20.9175 6.165 19.6825L19.6825 6.165C20.9175 7.7875 21.6525 9.81 21.6525 12C21.6525 17.3225 17.3225 21.6525 12 21.6525Z" fill="url(#paint0_linear_548_91)"/>
<path d="M18.4972 9.49744V9.25744L18.5072 7.99244L17.2422 7.99994H16.9897C16.1722 8.00494 15.3822 8.16744 14.6622 8.47244C14.7197 8.15494 14.7497 7.82744 14.7497 7.49994C14.7497 6.00994 14.1472 4.59994 13.0522 3.52994L12.8747 3.35744L11.9997 2.50244L11.1247 3.35744L10.9472 3.53244C9.85219 4.60244 9.24969 6.01244 9.24969 7.50244C9.24969 7.83244 9.27969 8.15744 9.33719 8.47494C8.61469 8.16994 7.82719 8.00744 7.00969 8.00244H6.75719L5.49219 7.99494L5.49969 9.25994V9.49994C5.50719 10.4849 5.77469 11.4274 6.26719 12.2499L5.49219 12.2449L5.49969 13.5099V13.7499C5.50969 15.2424 6.11469 16.6324 7.20719 17.6649C8.27719 18.6799 9.70969 19.2424 11.2397 19.2524V19.2599L11.9997 19.2549L12.7597 19.2599V19.2524C14.2897 19.2424 15.7222 18.6799 16.7922 17.6649C17.8822 16.6324 18.4872 15.2424 18.4972 13.7499V13.5099L18.5072 12.2449L17.7322 12.2499C18.2272 11.4274 18.4922 10.4849 18.4997 9.49994L18.4972 9.49744Z" fill="white"/>
<path d="M12.4975 17.76C12.505 16.6125 12.9725 15.54 13.8125 14.745C14.6525 13.95 15.7825 13.5075 16.9975 13.5H17.25V13.7375C17.2425 14.885 16.775 15.9575 15.935 16.7525C15.095 17.5475 13.9625 17.99 12.75 17.9975H12.4975V17.76ZM11.25 17.9975C10.0375 17.99 8.9075 17.55 8.065 16.7525C7.2225 15.955 6.7575 14.885 6.75 13.7375V13.4975H7.0025C8.215 13.505 9.3475 13.945 10.1875 14.7425C11.0275 15.5375 11.495 16.61 11.5025 17.7575V17.9975H11.25ZM12.4975 13.51C12.505 12.3625 12.9725 11.29 13.8125 10.495C14.6525 9.7 15.7825 9.2575 16.9975 9.25H17.25V9.4875C17.2425 10.635 16.775 11.7075 15.935 12.5025C15.095 13.2975 13.9625 13.74 12.75 13.7475H12.4975V13.51ZM11.25 13.7475C10.0375 13.74 8.9075 13.3 8.065 12.5025C7.2225 11.705 6.7575 10.635 6.75 9.4875V9.2475H7.0025C8.215 9.255 9.3475 9.695 10.1875 10.4925C11.0275 11.2875 11.495 12.36 11.5025 13.5075V13.7475H11.25ZM11.8225 10.575C10.97 9.74 10.5 8.6475 10.5 7.5C10.5 6.3525 10.97 5.2575 11.8225 4.425L12 4.25L12.1775 4.425C13.03 5.26 13.5 6.3525 13.5 7.5C13.5 8.6475 13.03 9.7425 12.1775 10.575L12 10.75L11.8225 10.575Z" fill="#7D96A4"/>
</g>
<defs>
<linearGradient id="paint0_linear_548_91" x1="12" y1="24" x2="12" y2="0" gradientUnits="userSpaceOnUse">
<stop stop-color="#83B943"/>
<stop offset="1" stop-color="#A3CD40"/>
</linearGradient>
<clipPath id="clip0_548_91">
<rect width="24" height="24" fill="white"/>
</clipPath>
</defs>
</svg>
