<svg xmlns="http://www.w3.org/2000/svg" width="48" height="48" fill="none"><g clip-path="url(#a)"><path fill="#fff" d="M24 .48C11.013.48.48 11.012.48 24 .48 36.99 11.012 47.52 24 47.52c12.99 0 23.52-10.53 23.52-23.52C47.52 11.013 36.99.48 24 .48M34.816 25.2l-15.11 8.929c-.173.1-.365.153-.557.153a1.06 1.06 0 0 1-.557-.153 1.15 1.15 0 0 1-.557-.99V15.275c0-.408.211-.787.557-.989a1.09 1.09 0 0 1 1.118 0l15.11 8.933c.346.206.557.58.557.989a1.17 1.17 0 0 1-.561.994"/></g><defs><clipPath id="a"><path fill="#fff" d="M0 0h48v48H0z"/></clipPath></defs></svg>