<svg width="20" height="20" viewBox="0 0 20 20" fill="none" xmlns="http://www.w3.org/2000/svg">
<path d="M14.6875 1.875H5.3125C3.09583 1.875 1.875 3.09583 1.875 5.3125V14.6875C1.875 16.9042 3.09583 18.125 5.3125 18.125H14.6875C16.9042 18.125 18.125 16.9042 18.125 14.6875V5.3125C18.125 3.09583 16.9042 1.875 14.6875 1.875ZM16.875 14.6875C16.875 16.2208 16.2208 16.875 14.6875 16.875H5.3125C3.77917 16.875 3.125 16.2208 3.125 14.6875V5.3125C3.125 3.77917 3.77917 3.125 5.3125 3.125H14.6875C16.2208 3.125 16.875 3.77917 16.875 5.3125V14.6875ZM13.5417 10C13.5417 10.1658 13.4758 10.3247 13.3586 10.4419C13.2414 10.5592 13.0824 10.625 12.9167 10.625H10.625V12.9167C10.625 13.0824 10.5592 13.2414 10.4419 13.3586C10.3247 13.4758 10.1658 13.5417 10 13.5417C9.83424 13.5417 9.67527 13.4758 9.55806 13.3586C9.44085 13.2414 9.375 13.0824 9.375 12.9167V10.625H7.08333C6.91757 10.625 6.7586 10.5592 6.64139 10.4419C6.52418 10.3247 6.45833 10.1658 6.45833 10C6.45833 9.83424 6.52418 9.67527 6.64139 9.55806C6.7586 9.44085 6.91757 9.375 7.08333 9.375H9.375V7.08333C9.375 6.91757 9.44085 6.7586 9.55806 6.64139C9.67527 6.52418 9.83424 6.45833 10 6.45833C10.1658 6.45833 10.3247 6.52418 10.4419 6.64139C10.5592 6.7586 10.625 6.91757 10.625 7.08333V9.375H12.9167C13.0824 9.375 13.2414 9.44085 13.3586 9.55806C13.4758 9.67527 13.5417 9.83424 13.5417 10Z" fill="#7D96A4"/>
</svg>
