<svg width="14" height="16" viewBox="0 0 14 16" fill="none" xmlns="http://www.w3.org/2000/svg">
<g clip-path="url(#clip0_548_86)">
<path d="M5.35852 14.9173L1.70703 4.93585C2.11165 4.8631 3.46164 4.67288 4.65766 5.48179C5.01215 5.72162 5.27331 5.99518 5.46235 6.23893C6.01142 7.85225 6.56068 9.46576 7.10975 11.0791L10.3148 1.45468C10.4682 1.19053 10.7028 0.875401 11.0589 0.603802C12.2464 -0.30218 13.7541 0.0623698 13.9998 0.125906C12.2228 5.04351 10.4458 9.96111 8.66879 14.8787C8.37058 15.5882 7.6614 16.0363 6.91101 15.9977C6.23849 15.9631 5.63573 15.5429 5.35832 14.9173H5.35852Z" fill="#8DC73F"/>
<path d="M0 0.0371094C0.0174371 0.478335 0.130382 1.9079 1.24497 3.17353C2.66371 4.7845 4.61171 4.88764 4.95015 4.9C4.88615 4.41249 4.63351 2.98351 3.42223 1.73043C2.08651 0.348909 0.467433 0.0941745 0 0.0371094Z" fill="#8DC73F"/>
<path d="M4.99311 3.57239C5.14807 3.52945 5.8291 3.32197 6.25473 2.62974C6.73048 1.85554 6.52104 1.06996 6.48379 0.938965C6.30248 1.0078 5.67058 1.27312 5.26755 1.97065C4.85144 2.69073 4.95883 3.38806 4.99331 3.57239H4.99311Z" fill="#8DC73F"/>
</g>
<defs>
<clipPath id="clip0_548_86">
<rect width="14" height="16" fill="white"/>
</clipPath>
</defs>
</svg>
