<svg width="0" height="0" class="hidden">
  <symbol fill="none" xmlns="http://www.w3.org/2000/svg" viewBox="0 0 14 18" id="apple">
    <g clip-path="url(#clip0_548_64)">
      <path
          d="M6.5 4.37595C6.5 1.51297 8.055 0 11 0C11.2775 0 11.5 0.216486 11.5 0.486486C11.5 3.34946 9.945 4.86243 7 4.86243C6.7225 4.86243 6.5 4.64595 6.5 4.37595ZM10.59 6.32919C8.92 5.99838 7.88 6.40703 7 7.30216C6.12 6.40703 5.08 5.99838 3.41 6.32919C1.12 6.78649 0 8.64243 0 11.1892C0 14.3003 2.3 18 4.63 18C6.05 18 6.1 17.5135 7 17.5135C7.9 17.5135 7.95 18 9.37 18C11.7 18 14 14.3003 14 11.1892C14 8.64243 12.88 6.78649 10.59 6.33162V6.32919Z"
          fill="#50667E"></path>
    </g>
    <defs>
      <clipPath id="clip0_548_64">
        <rect width="14" height="18" fill="white"></rect>
      </clipPath>
    </defs>
  </symbol>
  <symbol fill="none" xmlns="http://www.w3.org/2000/svg" viewBox="0 0 18 18" id="carrot">
    <g clip-path="url(#clip0_548_67)">
      <path
          d="M13.3348 6.53913C14.22 8.2331 13.9709 10.3808 12.5507 11.8158C11.663 12.7134 10.7901 13.4876 9.9123 14.1706C9.79394 14.2619 9.62627 14.2495 9.52024 14.1435L6.68956 11.3128C6.40106 11.0243 5.93257 11.0243 5.64408 11.3128C5.35558 11.6013 5.35558 12.0698 5.64408 12.3583L8.21832 14.9326C8.35394 15.0682 8.32682 15.2975 8.16654 15.3986C6.13723 16.666 3.99202 17.4797 1.44983 17.9753C1.37339 17.9901 1.29449 17.9975 1.21805 17.9975C0.899966 17.9975 0.589282 17.8717 0.359966 17.64C0.0739391 17.3539 -0.0493486 16.9471 0.0270898 16.5501C0.261336 15.3542 0.572021 14.2495 0.96161 13.2016C1.03558 12.9994 1.29942 12.9452 1.4523 13.098L2.68517 14.3309C2.83065 14.4764 3.01805 14.5479 3.20791 14.5479C3.39777 14.5479 3.58764 14.4764 3.73065 14.3309C4.01914 14.0424 4.01914 13.5739 3.73065 13.2854L1.92819 11.483C1.83695 11.3917 1.8123 11.2487 1.87147 11.1328C2.7049 9.51776 3.79969 7.99886 5.21997 6.46516C5.33586 6.34187 5.53558 6.33447 5.65394 6.45529L7.61421 8.41557C7.75969 8.56105 7.94709 8.63255 8.13695 8.63255C8.32682 8.63255 8.51668 8.56105 8.65969 8.41557C8.94818 8.12707 8.94818 7.65858 8.65969 7.37009L6.73147 5.44187C6.60325 5.31365 6.61558 5.09173 6.76353 4.98817C8.15668 3.9994 9.97887 3.89584 11.4633 4.67009C10.578 3.23995 11.4707 0.897485 12.3608 0.00488281C13.3224 0.966527 14.2816 3.61968 13.0142 4.99064C14.3852 3.7257 17.0383 4.68488 18 5.64653C17.1074 6.53913 14.7649 7.42927 13.3348 6.54406V6.53913Z"
          fill="#50667E"></path>
    </g>
    <defs>
      <clipPath id="clip0_548_67">
        <rect width="18" height="18" fill="white"></rect>
      </clipPath>
    </defs>
  </symbol>
  <symbol fill="none" xmlns="http://www.w3.org/2000/svg" viewBox="0 0 18 16" id="cheese">
    <g clip-path="url(#clip0_548_70)">
      <path
          d="M14.5569 10.7424C14.5569 11.2476 14.1438 11.6567 13.6338 11.6567C13.1238 11.6567 12.7062 11.2476 12.7062 10.7424C12.7062 10.2373 13.1146 9.82813 13.6246 9.82813H13.6338C14.1438 9.82813 14.5569 10.2373 14.5569 10.7424ZM9.94154 11.8853H9.93231C9.54923 11.8853 9.24462 12.1916 9.24462 12.571C9.24462 12.9504 9.55846 13.2567 9.94154 13.2567C10.3246 13.2567 10.6338 12.9504 10.6338 12.571C10.6338 12.1916 10.3246 11.8853 9.94154 11.8853ZM5.32615 10.5138H5.31692C4.68 10.5138 4.16769 11.0258 4.16769 11.6567C4.16769 12.2876 4.68923 12.7996 5.32615 12.7996C5.96308 12.7996 6.48 12.2876 6.48 11.6567C6.48 11.0258 5.96308 10.5138 5.32615 10.5138ZM18 7.99956V13.4853C18 14.8704 16.8623 15.9996 15.4615 15.9996H2.53846C1.13769 15.9996 0 14.8704 0 13.4853V8.71042C0 8.04299 0.327692 7.4167 0.876923 7.03042L10.4377 0.349273C10.95 -0.00958396 11.5938 -0.0964411 12.1546 0.111559C15.5123 1.35499 17.8062 4.43613 17.9977 7.96299C17.9977 7.97442 17.9977 7.98813 17.9977 7.99956H18ZM16.6154 13.4853V8.68527H1.39154C1.39154 8.68527 1.38462 8.70127 1.38462 8.71042V13.4853C1.38462 14.1161 1.90154 14.6281 2.53846 14.6281H15.4615C16.0985 14.6281 16.6154 14.1161 16.6154 13.4853Z"
          fill="#50667E"></path>
    </g>
    <defs>
      <clipPath id="clip0_548_70">
        <rect width="18" height="16" fill="white"></rect>
      </clipPath>
    </defs>
  </symbol>
  <symbol fill="none" xmlns="http://www.w3.org/2000/svg" viewBox="0 0 18 18" id="chicken">
    <g clip-path="url(#clip0_548_58)">
      <path
          d="M6.62002 11.75C6.93002 12.06 7.28002 12.32 7.65002 12.52L5.86002 14.3C5.55002 14.62 5.48002 15.09 5.65002 15.51C5.80002 15.9 5.83002 16.35 5.67002 16.81C5.49002 17.35 5.03002 17.78 4.48002 17.93C3.27002 18.26 2.17002 17.36 2.17002 16.2C2.17002 15.99 2.01002 15.83 1.81002 15.83C1.02002 15.83 0.350016 15.39 0.100016 14.64C-0.309984 13.38 0.610016 12.22 1.81002 12.22C2.06002 12.22 2.30002 12.27 2.51002 12.37C2.92002 12.54 3.38002 12.45 3.70002 12.14L5.48002 10.36C5.68002 10.73 5.94002 11.07 6.25002 11.38L6.62002 11.75ZM16.47 1.53C15.42 0.49 14.1 0 12.79 0C10.66 0 8.57002 1.29 7.81002 3.58L6.58002 7.25C6.37002 7.9 6.39002 8.6 6.62002 9.22C6.76002 9.63 6.99002 10 7.31002 10.32L7.68002 10.69C7.99002 11 8.37002 11.24 8.77002 11.38C9.10002 11.51 9.45002 11.57 9.80002 11.57C10.12 11.57 10.44 11.52 10.75 11.42L14.42 10.19C16.71 9.43 18 7.34 18 5.21C18 3.9 17.51 2.58 16.47 1.53Z"
          fill="#50667E"></path>
    </g>
    <defs>
      <clipPath id="clip0_548_58">
        <rect width="18" height="18" fill="white"></rect>
      </clipPath>
    </defs>
  </symbol>
  <symbol fill="none" xmlns="http://www.w3.org/2000/svg" viewBox="0 0 20 14" id="fish">
    <g clip-path="url(#clip0_548_61)">
      <path
          d="M12.6694 2.37717C11.542 5.46217 11.5476 8.58332 12.686 11.6683C12.7274 11.7819 12.686 11.8645 12.6473 11.9291C12.6114 11.9884 12.5451 12.0504 12.4097 12.0685C12.1278 12.1072 11.8432 12.1356 11.5641 12.1511L7.83387 13.9634C7.599 14.077 7.32545 13.904 7.35032 13.6587L7.58519 11.4515C6.43571 10.9894 5.14532 10.2898 4.09256 9.3294C3.91848 9.16935 3.65874 9.13062 3.44321 9.23905L0.436897 10.788C0.246239 10.8913 0.030713 10.7002 0.127424 10.5169L2.00913 6.99822L0.130187 3.48209C0.0334761 3.2988 0.249002 3.10776 0.43966 3.21102L3.44598 4.75998C3.65874 4.87099 3.91848 4.82968 4.09532 4.66962C5.14808 3.70927 6.43848 3.00966 7.58795 2.54755L7.35308 0.340286C7.32821 0.0950339 7.60177 -0.0779331 7.83663 0.0356571L11.5669 1.84794C11.8487 1.86343 12.1306 1.89183 12.4124 1.93055C12.5478 1.94862 12.639 2.02349 12.6694 2.09319C12.7108 2.18355 12.7191 2.25067 12.6694 2.37975V2.37717ZM19.6519 7.96632C18.2233 9.72181 16.5212 10.85 14.7473 11.4928C14.5704 11.5573 14.366 11.4644 14.3024 11.2966C13.2441 8.4749 13.2552 5.52413 14.3079 2.70245C14.3715 2.53464 14.576 2.44171 14.7528 2.50625C16.524 3.14906 18.2233 4.2798 19.6491 6.03271C20.1133 6.60324 20.1133 7.39579 19.6491 7.96632H19.6519ZM17.5353 7.00081C17.5353 6.57226 17.1651 6.22633 16.7064 6.22633H16.6953C16.2366 6.22633 15.8719 6.57226 15.8719 7.00081C15.8719 7.42935 16.2477 7.77528 16.7064 7.77528C17.1651 7.77528 17.5353 7.42935 17.5353 7.00081Z"
          fill="#50667E"></path>
    </g>
    <defs>
      <clipPath id="clip0_548_61">
        <rect width="20" height="14" fill="white"></rect>
      </clipPath>
    </defs>
  </symbol>
  <symbol fill="none" xmlns="http://www.w3.org/2000/svg" viewBox="0 0 24 24" id="gluten">
    <g clip-path="url(#clip0_548_91)">
      <path
          d="M12 0C5.3725 0 0 5.3725 0 12C0 18.6275 5.3725 24 12 24C18.6275 24 24 18.6275 24 12C24 5.3725 18.6275 0 12 0ZM2.3475 12C2.3475 6.6775 6.6775 2.3475 12 2.3475C14.19 2.3475 16.2125 3.0825 17.835 4.3175L4.3175 17.835C3.0825 16.2125 2.3475 14.19 2.3475 12ZM12 21.6525C9.81 21.6525 7.7875 20.9175 6.165 19.6825L19.6825 6.165C20.9175 7.7875 21.6525 9.81 21.6525 12C21.6525 17.3225 17.3225 21.6525 12 21.6525Z"
          fill="url(#paint0_linear_548_91)"></path>
      <path
          d="M18.4972 9.49744V9.25744L18.5072 7.99244L17.2422 7.99994H16.9897C16.1722 8.00494 15.3822 8.16744 14.6622 8.47244C14.7197 8.15494 14.7497 7.82744 14.7497 7.49994C14.7497 6.00994 14.1472 4.59994 13.0522 3.52994L12.8747 3.35744L11.9997 2.50244L11.1247 3.35744L10.9472 3.53244C9.85219 4.60244 9.24969 6.01244 9.24969 7.50244C9.24969 7.83244 9.27969 8.15744 9.33719 8.47494C8.61469 8.16994 7.82719 8.00744 7.00969 8.00244H6.75719L5.49219 7.99494L5.49969 9.25994V9.49994C5.50719 10.4849 5.77469 11.4274 6.26719 12.2499L5.49219 12.2449L5.49969 13.5099V13.7499C5.50969 15.2424 6.11469 16.6324 7.20719 17.6649C8.27719 18.6799 9.70969 19.2424 11.2397 19.2524V19.2599L11.9997 19.2549L12.7597 19.2599V19.2524C14.2897 19.2424 15.7222 18.6799 16.7922 17.6649C17.8822 16.6324 18.4872 15.2424 18.4972 13.7499V13.5099L18.5072 12.2449L17.7322 12.2499C18.2272 11.4274 18.4922 10.4849 18.4997 9.49994L18.4972 9.49744Z"
          fill="white"></path>
      <path
          d="M12.4975 17.76C12.505 16.6125 12.9725 15.54 13.8125 14.745C14.6525 13.95 15.7825 13.5075 16.9975 13.5H17.25V13.7375C17.2425 14.885 16.775 15.9575 15.935 16.7525C15.095 17.5475 13.9625 17.99 12.75 17.9975H12.4975V17.76ZM11.25 17.9975C10.0375 17.99 8.9075 17.55 8.065 16.7525C7.2225 15.955 6.7575 14.885 6.75 13.7375V13.4975H7.0025C8.215 13.505 9.3475 13.945 10.1875 14.7425C11.0275 15.5375 11.495 16.61 11.5025 17.7575V17.9975H11.25ZM12.4975 13.51C12.505 12.3625 12.9725 11.29 13.8125 10.495C14.6525 9.7 15.7825 9.2575 16.9975 9.25H17.25V9.4875C17.2425 10.635 16.775 11.7075 15.935 12.5025C15.095 13.2975 13.9625 13.74 12.75 13.7475H12.4975V13.51ZM11.25 13.7475C10.0375 13.74 8.9075 13.3 8.065 12.5025C7.2225 11.705 6.7575 10.635 6.75 9.4875V9.2475H7.0025C8.215 9.255 9.3475 9.695 10.1875 10.4925C11.0275 11.2875 11.495 12.36 11.5025 13.5075V13.7475H11.25ZM11.8225 10.575C10.97 9.74 10.5 8.6475 10.5 7.5C10.5 6.3525 10.97 5.2575 11.8225 4.425L12 4.25L12.1775 4.425C13.03 5.26 13.5 6.3525 13.5 7.5C13.5 8.6475 13.03 9.7425 12.1775 10.575L12 10.75L11.8225 10.575Z"
          fill="#7D96A4"></path>
    </g>
    <defs>
      <linearGradient id="paint0_linear_548_91" x1="12" y1="24" x2="12" y2="0" gradientUnits="userSpaceOnUse">
        <stop stop-color="#83B943"></stop>
        <stop offset="1" stop-color="#A3CD40"></stop>
      </linearGradient>
      <clipPath id="clip0_548_91">
        <rect width="24" height="24" fill="white"></rect>
      </clipPath>
    </defs>
  </symbol>
  <symbol fill="none" xmlns="http://www.w3.org/2000/svg" viewBox="0 0 18 18" id="honey">
    <g clip-path="url(#clip0_548_81)">
      <path fill-rule="evenodd" clip-rule="evenodd"
            d="M15.8896 11.2619L14.7664 9.30664H12.5162H10.2625L9.14717 11.2502L9.13939 11.2658L8.0166 13.2251L9.13939 15.1843L10.2664 17.1431H14.7664L15.8818 15.196L15.8896 15.1843L17.0166 13.2251L15.8896 11.2658V11.2619Z"
            fill="#50667E"></path>
      <path fill-rule="evenodd" clip-rule="evenodd"
            d="M7.88075 10.5179L7.87297 10.5296L6.74982 12.4888H4.5H2.24982L1.12279 10.5296L0 8.5704L2.24982 4.65234H6.74982L7.87297 6.61119L9 8.5704L7.88075 10.5179Z"
            fill="#50667E"></path>
      <path fill-rule="evenodd" clip-rule="evenodd"
            d="M12.4996 7.83647H10.2498L9.12279 5.87726L8 3.91806L9.12279 1.95921L9.13057 1.94356L10.2459 0H14.7498L15.873 1.95921L17 3.91806L15.873 5.87726L15.8652 5.89291L14.7498 7.83647H12.4996Z"
            fill="#50667E"></path>
    </g>
    <defs>
      <clipPath id="clip0_548_81">
        <rect width="18" height="18" fill="white"></rect>
      </clipPath>
    </defs>
  </symbol>
  <symbol fill="none" xmlns="http://www.w3.org/2000/svg" viewBox="0 0 24 24" id="lactose">
    <g clip-path="url(#clip0_548_96)">
      <path
          d="M12 0C5.3725 0 0 5.3725 0 12C0 18.6275 5.3725 24 12 24C18.6275 24 24 18.6275 24 12C24 5.3725 18.6275 0 12 0ZM2.3475 12C2.3475 6.6775 6.6775 2.3475 12 2.3475C14.19 2.3475 16.2125 3.0825 17.835 4.3175L4.3175 17.835C3.0825 16.2125 2.3475 14.19 2.3475 12ZM12 21.6525C9.81 21.6525 7.7875 20.9175 6.165 19.6825L19.6825 6.165C20.9175 7.7875 21.6525 9.81 21.6525 12C21.6525 17.3225 17.3225 21.6525 12 21.6525Z"
          fill="url(#paint0_linear_548_96)"></path>
      <path
          d="M13.0154 3.52016L12.1754 2.35266C12.1179 2.35266 12.0604 2.34766 12.0004 2.34766C11.9404 2.34766 11.8854 2.34766 11.8279 2.35016L10.9879 3.51766C10.5029 4.19016 6.25293 10.1902 6.25293 13.4977C6.25293 16.8052 8.83293 19.2477 12.0029 19.2477C15.1729 19.2477 17.7529 16.6677 17.7529 13.4977C17.7529 10.3277 13.5004 4.19266 13.0154 3.52016Z"
          fill="white"></path>
      <path
          d="M12 4.25C12 4.25 7.5 10.5 7.5 13.5C7.5 15.985 9.515 18 12 18C14.485 18 16.5 15.985 16.5 13.5C16.5 10.5 12 4.25 12 4.25ZM12.115 16.3175C12.06 16.6175 11.7975 16.83 11.5 16.83C11.4625 16.83 11.425 16.8275 11.385 16.82C9.785 16.525 8.6225 15.13 8.6225 13.5C8.6225 13.2375 8.665 12.9425 8.7525 12.595C8.8375 12.26 9.1775 12.06 9.5125 12.1425C9.8475 12.2275 10.05 12.5675 9.965 12.9025C9.905 13.1425 9.8725 13.345 9.8725 13.4975C9.8725 14.5225 10.6025 15.4025 11.61 15.5875C11.95 15.65 12.175 15.975 12.11 16.315L12.115 16.3175Z"
          fill="#7D96A4"></path>
    </g>
    <defs>
      <linearGradient id="paint0_linear_548_96" x1="12" y1="24" x2="12" y2="0" gradientUnits="userSpaceOnUse">
        <stop stop-color="#83B943"></stop>
        <stop offset="1" stop-color="#A3CD40"></stop>
      </linearGradient>
      <clipPath id="clip0_548_96">
        <rect width="24" height="24" fill="white"></rect>
      </clipPath>
    </defs>
  </symbol>
  <symbol fill="none" xmlns="http://www.w3.org/2000/svg" viewBox="0 0 18 18" id="meat">
    <g clip-path="url(#clip0_548_55)">
      <path
          d="M5.30769 18C3.47077 18 0 17.0838 0 13.6154C0 12.0138 1.00154 11.1462 1.88769 10.38C2.85692 9.54 3.69231 8.81538 3.69231 7.15385C3.69231 3.07615 6.76846 0 10.8462 0C15.1915 0 18 2.98846 18 7.61538C18 12.2423 14.6746 18 5.30769 18ZM10.8462 1.38462C7.55769 1.38462 5.07692 3.86538 5.07692 7.15385C5.07692 9.45 3.81 10.5462 2.79462 11.4277C1.89462 12.2077 1.38462 12.6923 1.38462 13.6154C1.38462 16.5808 5.14615 16.6154 5.30769 16.6154C16.0708 16.6154 16.6154 9.11769 16.6154 7.61538C16.6154 3.02077 13.6362 1.38462 10.8462 1.38462ZM10.8462 3.46154C8.67231 3.46154 7.15385 4.98 7.15385 7.15385C7.15385 10.3985 5.83615 11.1531 4.71462 12.1269C4.45846 12.3462 3.68769 12.9138 3.91615 13.7723C4.12615 14.5638 5.04 14.6654 5.34 14.6654C13.6223 14.6654 14.5385 9.23769 14.5385 7.61538C14.5385 4.18154 12.5308 3.46154 10.8462 3.46154ZM10.8646 8.30769C10.2277 8.30769 9.70615 7.79077 9.70615 7.15385C9.70615 6.51692 10.2185 6 10.8554 6H10.8646C11.5015 6 12.0185 6.51692 12.0185 7.15385C12.0185 7.79077 11.5015 8.30769 10.8646 8.30769Z"
          fill="#50667E"></path>
    </g>
    <defs>
      <clipPath id="clip0_548_55">
        <rect width="18" height="18" fill="white"></rect>
      </clipPath>
    </defs>
  </symbol>
  <symbol fill="none" xmlns="http://www.w3.org/2000/svg" viewBox="0 0 16 15" id="mushroom">
    <g clip-path="url(#clip0_548_77)">
      <path
          d="M14.0912 10.0683C15.7593 9.69369 16.8133 7.21556 15.1951 4.19743C13.2031 0.481827 9.02078 -0.0685151 7.99941 0.00624238C6.97882 -0.0685151 2.79649 0.481827 0.805319 4.19743C-0.812855 7.21636 0.241061 9.69449 1.90923 10.0683H14.0912Z"
          fill="#50667E"></path>
      <path
          d="M10.0342 15.4393H5.96533C4.77015 15.4393 3.87734 14.6599 4.13129 13.8344C4.3908 12.997 4.64793 11.9543 4.69396 11.0063H11.3047C11.3516 11.9543 11.6079 12.997 11.8674 13.8344C12.1214 14.6599 11.2286 15.4393 10.0334 15.4393H10.0342Z"
          fill="#50667E"></path>
    </g>
    <defs>
      <clipPath id="clip0_548_77">
        <rect width="16" height="15" fill="white"></rect>
      </clipPath>
    </defs>
  </symbol>
  <symbol fill="none" xmlns="http://www.w3.org/2000/svg" viewBox="0 0 15 14" id="nut">
    <g clip-path="url(#clip0_548_73)">
      <path
          d="M8.26463 5.44969C10.5349 6.98146 12.8927 7.53722 13.718 6.77465C13.7655 6.73041 13.8073 6.68285 13.8446 6.63032C14.5253 5.66314 13.1311 3.56566 10.7304 1.94595C8.33015 0.326251 5.83166 -0.202406 5.15097 0.765324C5.10973 0.82394 5.07584 0.886981 5.04986 0.953339C4.64314 1.98577 6.01016 3.92842 8.26519 5.44969H8.26463Z"
          fill="#50667E"></path>
      <path
          d="M14.3719 7.79713C14.4776 7.71916 14.4742 7.72027 14.364 7.801C14.364 7.801 12.9202 8.22791 11.6848 7.96635C10.4516 7.70534 9.05014 7.07438 7.73847 6.1896C6.42681 5.30482 5.32528 4.24695 4.63724 3.21231C3.96503 2.20145 3.79161 1.38136 3.8368 0.752064C3.85996 0.664692 3.86052 0.659162 3.8368 0.742663C3.85827 0.455109 3.92549 0.207371 4.01078 0C3.53289 0.132717 3.06742 0.320733 2.62342 0.57179C2.21049 0.805151 1.81676 1.09326 1.44959 1.44219C1.32757 1.55832 1.21403 1.68108 1.10896 1.80938C-0.572706 3.86981 -0.0541396 7.40506 0.782458 10.1014C1.4027 12.1005 2.19693 13.6389 2.39916 13.7749C2.89061 14.1067 12.5496 14.6962 14.5092 10.2518C14.7103 9.79508 14.8453 9.33499 14.9221 8.87657C15.0057 8.37777 15.0199 7.88119 14.9764 7.39345C14.8176 7.53723 14.6194 7.67879 14.3725 7.79713H14.3719Z"
          fill="#50667E"></path>
    </g>
    <defs>
      <clipPath id="clip0_548_73">
        <rect width="15" height="14" fill="white"></rect>
      </clipPath>
    </defs>
  </symbol>
  <symbol fill="none" xmlns="http://www.w3.org/2000/svg" viewBox="0 0 14 16" id="vegan">
    <g clip-path="url(#clip0_548_86)">
      <path
          d="M5.35852 14.9173L1.70703 4.93585C2.11165 4.8631 3.46164 4.67288 4.65766 5.48179C5.01215 5.72162 5.27331 5.99518 5.46235 6.23893C6.01142 7.85225 6.56068 9.46576 7.10975 11.0791L10.3148 1.45468C10.4682 1.19053 10.7028 0.875401 11.0589 0.603802C12.2464 -0.30218 13.7541 0.0623698 13.9998 0.125906C12.2228 5.04351 10.4458 9.96111 8.66879 14.8787C8.37058 15.5882 7.6614 16.0363 6.91101 15.9977C6.23849 15.9631 5.63573 15.5429 5.35832 14.9173H5.35852Z"
          fill="#8DC73F"></path>
      <path
          d="M0 0.0371094C0.0174371 0.478335 0.130382 1.9079 1.24497 3.17353C2.66371 4.7845 4.61171 4.88764 4.95015 4.9C4.88615 4.41249 4.63351 2.98351 3.42223 1.73043C2.08651 0.348909 0.467433 0.0941745 0 0.0371094Z"
          fill="#8DC73F"></path>
      <path
          d="M4.99311 3.57239C5.14807 3.52945 5.8291 3.32197 6.25473 2.62974C6.73048 1.85554 6.52104 1.06996 6.48379 0.938965C6.30248 1.0078 5.67058 1.27312 5.26755 1.97065C4.85144 2.69073 4.95883 3.38806 4.99331 3.57239H4.99311Z"
          fill="#8DC73F"></path>
    </g>
    <defs>
      <clipPath id="clip0_548_86">
        <rect width="14" height="16" fill="white"></rect>
      </clipPath>
    </defs>
  </symbol>
</svg>