<?xml version="1.0" encoding="utf-8"?><svg viewBox="0 0 20 18" xmlns="http://www.w3.org/2000/svg" xmlns:xlink="http://www.w3.org/1999/xlink"><style>:root>svg{display:none}:root>svg:target{display:block}</style><svg fill="none" viewBox="0 0 14 18" id="apple" xmlns="http://www.w3.org/2000/svg"><g clip-path="url(#aa)"><path d="M6.5 4.376C6.5 1.513 8.055 0 11 0c.277 0 .5.216.5.486 0 2.863-1.555 4.376-4.5 4.376a.492.492 0 0 1-.5-.486zm4.09 1.953C8.92 6 7.88 6.407 7 7.302c-.88-.895-1.92-1.304-3.59-.973C1.12 6.786 0 8.642 0 11.19 0 14.3 2.3 18 4.63 18c1.42 0 1.47-.486 2.37-.486.9 0 .95.486 2.37.486C11.7 18 14 14.3 14 11.19c0-2.548-1.12-4.404-3.41-4.858v-.003z" fill="#50667E"/></g><defs><clipPath id="aa"><path fill="#fff" d="M0 0h14v18H0z"/></clipPath></defs></svg><svg fill="none" viewBox="0 0 18 18" id="carrot" xmlns="http://www.w3.org/2000/svg"><g clip-path="url(#ba)"><path d="M13.335 6.54a4.526 4.526 0 0 1-.784 5.276 27.157 27.157 0 0 1-2.639 2.355.297.297 0 0 1-.392-.027l-2.83-2.831a.74.74 0 0 0-1.046 1.045l2.574 2.575a.302.302 0 0 1-.051.466c-2.03 1.267-4.175 2.08-6.717 2.576a1.208 1.208 0 0 1-1.09-.335 1.213 1.213 0 0 1-.333-1.09c.234-1.196.545-2.3.935-3.348a.299.299 0 0 1 .49-.104l1.233 1.233a.733.733 0 0 0 .523.217.74.74 0 0 0 .523-1.263l-1.803-1.802a.304.304 0 0 1-.057-.35C2.705 9.518 3.8 7.999 5.22 6.465a.303.303 0 0 1 .434-.01l1.96 1.96a.734.734 0 0 0 .523.218.74.74 0 0 0 .523-1.262L6.73 5.44a.3.3 0 0 1 .033-.453 4.521 4.521 0 0 1 4.7-.318c-.886-1.43.007-3.773.897-4.665.961.962 1.92 3.615.653 4.986 1.371-1.265 4.024-.306 4.986.656-.893.892-3.235 1.782-4.665.897V6.54z" fill="#50667E"/></g><defs><clipPath id="ba"><path fill="#fff" d="M0 0h18v18H0z"/></clipPath></defs></svg><svg fill="none" viewBox="0 0 18 16" id="cheese" xmlns="http://www.w3.org/2000/svg"><g clip-path="url(#ca)"><path d="M14.557 10.742a.918.918 0 0 1-.923.915.922.922 0 0 1-.928-.915c0-.505.409-.914.919-.914h.009c.51 0 .923.41.923.914zm-4.615 1.143h-.01a.684.684 0 0 0-.687.686c0 .38.313.686.697.686a.688.688 0 0 0 .692-.686c0-.38-.31-.686-.692-.686zm-4.616-1.371h-.01c-.636 0-1.148.512-1.148 1.143 0 .63.521 1.143 1.158 1.143.637 0 1.154-.512 1.154-1.143s-.517-1.143-1.154-1.143zM18 8v5.485C18 14.87 16.862 16 15.461 16H2.538C1.138 16 0 14.87 0 13.485V8.71c0-.667.328-1.293.877-1.68l9.56-6.68a1.869 1.869 0 0 1 1.718-.238c3.357 1.243 5.651 4.324 5.843 7.851V8H18zm-1.385 5.485v-4.8H1.392s-.007.016-.007.025v4.775c0 .631.517 1.143 1.153 1.143h12.923c.638 0 1.154-.512 1.154-1.143z" fill="#50667E"/></g><defs><clipPath id="ca"><path fill="#fff" d="M0 0h18v16H0z"/></clipPath></defs></svg><svg fill="none" viewBox="0 0 18 18" id="chicken" xmlns="http://www.w3.org/2000/svg"><g clip-path="url(#da)"><path d="M6.62 11.75c.31.31.66.57 1.03.77L5.86 14.3c-.31.32-.38.79-.21 1.21.15.39.18.84.02 1.3-.18.54-.64.97-1.19 1.12-1.21.33-2.31-.57-2.31-1.73a.36.36 0 0 0-.36-.37c-.79 0-1.46-.44-1.71-1.19-.41-1.26.51-2.42 1.71-2.42.25 0 .49.05.7.15.41.17.87.08 1.19-.23l1.78-1.78c.2.37.46.71.77 1.02l.37.37zm9.85-10.22A5.189 5.189 0 0 0 12.79 0c-2.13 0-4.22 1.29-4.98 3.58L6.58 7.25c-.21.65-.19 1.35.04 1.97.14.41.37.78.69 1.1l.37.37c.31.31.69.55 1.09.69.33.13.68.19 1.03.19.32 0 .64-.05.95-.15l3.67-1.23C16.71 9.43 18 7.34 18 5.21c0-1.31-.49-2.63-1.53-3.68z" fill="#50667E"/></g><defs><clipPath id="da"><path fill="#fff" d="M0 0h18v18H0z"/></clipPath></defs></svg><svg fill="none" viewBox="0 0 20 14" id="fish" xmlns="http://www.w3.org/2000/svg"><g clip-path="url(#ea)"><path d="M12.67 2.377c-1.128 3.085-1.122 6.206.016 9.291.041.114 0 .197-.039.261-.036.06-.102.121-.237.14a10.55 10.55 0 0 1-.846.082l-3.73 1.812c-.235.114-.509-.059-.484-.304l.235-2.208c-1.15-.462-2.44-1.161-3.492-2.122a.578.578 0 0 0-.65-.09L.437 10.788c-.19.103-.406-.088-.31-.271L2.01 6.998.13 3.482c-.097-.182.12-.374.31-.271L3.446 4.76c.213.111.472.07.65-.09 1.052-.96 2.342-1.66 3.492-2.122L7.353.34c-.025-.245.249-.418.484-.304l3.73 1.812c.282.015.564.044.845.083.136.018.227.092.257.162.042.09.05.158 0 .287v-.003zm6.982 5.59c-1.429 1.755-3.13 2.883-4.905 3.526a.354.354 0 0 1-.445-.196c-1.058-2.822-1.047-5.773.006-8.595a.354.354 0 0 1 .445-.196c1.771.643 3.47 1.774 4.896 3.527.464.57.464 1.363 0 1.933h.003zM17.535 7c0-.429-.37-.775-.829-.775h-.01c-.46 0-.824.346-.824.775 0 .428.376.774.834.774.46 0 .83-.346.83-.774z" fill="#50667E"/></g><defs><clipPath id="ea"><path fill="#fff" d="M0 0h20v14H0z"/></clipPath></defs></svg><svg fill="none" viewBox="0 0 18 18" id="honey" xmlns="http://www.w3.org/2000/svg"><g clip-path="url(#fa)" fill-rule="evenodd" clip-rule="evenodd" fill="#50667E"><path d="m15.89 11.262-1.124-1.955h-4.504L9.147 11.25l-.008.016-1.122 1.96 1.122 1.958 1.127 1.96h4.5l1.116-1.948.008-.012 1.127-1.959-1.127-1.96v-.003zm-8.01-.744-.007.012-1.123 1.959h-4.5l-1.127-1.96L0 8.57l2.25-3.918h4.5l1.123 1.96L9 8.57l-1.12 1.948zm4.62-2.682h-2.25L9.123 5.877 8 3.918 9.123 1.96l.008-.015L10.246 0h4.504l1.123 1.96L17 3.917l-1.127 1.96-.008.015-1.115 1.943H12.5z"/></g><defs><clipPath id="fa"><path fill="#fff" d="M0 0h18v18H0z"/></clipPath></defs></svg><svg fill="none" viewBox="0 0 18 18" id="meat" xmlns="http://www.w3.org/2000/svg"><g clip-path="url(#ga)"><path d="M5.308 18C3.47 18 0 17.084 0 13.615c0-1.601 1.002-2.469 1.888-3.235.969-.84 1.804-1.565 1.804-3.226C3.692 3.076 6.768 0 10.846 0 15.191 0 18 2.988 18 7.615 18 12.242 14.675 18 5.308 18zm5.538-16.615c-3.288 0-5.77 2.48-5.77 5.769 0 2.296-1.266 3.392-2.281 4.274-.9.78-1.41 1.264-1.41 2.187 0 2.966 3.761 3 3.923 3 10.763 0 11.307-7.497 11.307-9 0-4.594-2.979-6.23-5.769-6.23zm0 2.077c-2.174 0-3.692 1.518-3.692 3.692 0 3.245-1.318 4-2.44 4.973-.256.22-1.026.787-.798 1.645.21.792 1.124.893 1.424.893 8.282 0 9.199-5.427 9.199-7.05 0-3.433-2.008-4.153-3.693-4.153zm.019 4.846a1.158 1.158 0 0 1-1.159-1.154A1.15 1.15 0 0 1 10.856 6h.009a1.154 1.154 0 0 1 0 2.308z" fill="#50667E"/></g><defs><clipPath id="ga"><path fill="#fff" d="M0 0h18v18H0z"/></clipPath></defs></svg><svg fill="none" viewBox="0 0 16 15" id="mushroom" xmlns="http://www.w3.org/2000/svg"><g clip-path="url(#ha)" fill="#50667E"><path d="M14.091 10.068c1.668-.374 2.722-2.852 1.104-5.87C13.203.481 9.021-.07 8 .005 6.98-.069 2.796.482.805 4.197-.813 7.217.241 9.694 1.91 10.068h12.182zm-4.057 5.372H5.965c-1.195 0-2.088-.78-1.834-1.606.26-.837.517-1.88.563-2.828h6.61c.048.948.304 1.991.563 2.828.254.826-.638 1.605-1.834 1.605h.001z"/></g><defs><clipPath id="ha"><path fill="#fff" d="M0 0h16v15H0z"/></clipPath></defs></svg><svg fill="none" viewBox="0 0 15 14" id="nut" xmlns="http://www.w3.org/2000/svg"><g clip-path="url(#ia)" fill="#50667E"><path d="M8.265 5.45c2.27 1.531 4.628 2.087 5.453 1.325a.938.938 0 0 0 .127-.145c.68-.967-.714-3.064-3.115-4.684C8.33.326 5.832-.202 5.151.766a.891.891 0 0 0-.101.187c-.407 1.033.96 2.975 3.215 4.497z"/><path d="M14.372 7.797c.106-.078.102-.077-.008.004 0 0-1.444.427-2.68.165-1.232-.26-2.634-.892-3.946-1.776-1.311-.885-2.413-1.943-3.1-2.978-.673-1.01-.846-1.83-.801-2.46.023-.087.024-.093 0-.01A2.38 2.38 0 0 1 4.011 0c-.478.133-.944.32-1.388.572a5.948 5.948 0 0 0-1.173.87 4.043 4.043 0 0 0-.341.367C-.573 3.87-.054 7.405.782 10.101c.62 2 1.415 3.538 1.617 3.674.492.332 10.15.921 12.11-3.523a5.77 5.77 0 0 0 .467-2.859 2.513 2.513 0 0 1-.604.404z"/></g><defs><clipPath id="ia"><path fill="#fff" d="M0 0h15v14H0z"/></clipPath></defs></svg></svg>